<svg xmlns="http://www.w3.org/2000/svg" viewBox="0 0 24 24"><g id="Layer_2" data-name="Layer 2"><g id="_24px" data-name="24"><g id="Add_Item" data-name="Add Item"><path d="M12,5.67A1.28,1.28,0,0,0,10.71,7v3.76H7a1.29,1.29,0,0,0,0,2.58h3.76v3.76A1.28,1.28,0,0,0,12,18.33a1.24,1.24,0,0,0,.91-.38,1.28,1.28,0,0,0,.38-.9V13.29h3.76a1.28,1.28,0,0,0,.9-.38,1.24,1.24,0,0,0,.38-.91,1.28,1.28,0,0,0-1.28-1.29H13.29V7A1.28,1.28,0,0,0,12,5.67Z" class="cls-1"/><path d="M12,0a12,12,0,1,0,8.49,3.51A12,12,0,0,0,12,0Zm9.43,12A9.43,9.43,0,1,1,12,2.57h0A9.44,9.44,0,0,1,21.43,12Z" class="cls-1"/></g></g></g></svg>