<svg xmlns="http://www.w3.org/2000/svg" viewBox="0 0 19.2 24"><defs><style>.cls-1{fill:#38373a;}</style></defs><g id="Layer_2" data-name="Layer 2"><g id="_24px" data-name="24px"><g id="Badge"><path class="cls-1" d="M19.2,9.59A9.6,9.6,0,0,0,2.81,2.81a9.58,9.58,0,0,0,0,13.56,9.82,9.82,0,0,0,1.77,1.4v4.86a1.38,1.38,0,0,0,.8,1.24A1.29,1.29,0,0,0,6,24a1.36,1.36,0,0,0,.88-.32l2.6-2.17,2.48,2.15h0a1.37,1.37,0,0,0,1.47.22,1.4,1.4,0,0,0,.81-1.25V18a9.6,9.6,0,0,0,5-8.42Zm-5.36,5.68a7.09,7.09,0,0,1-2.51,1.19,7,7,0,0,1-1.73.22,7.28,7.28,0,0,1-2.11-.32A7.19,7.19,0,0,1,5,15a7.1,7.1,0,1,1,8.86.31Z"/><path class="cls-1" d="M12.89,8.19,11,7.91,10.2,6.13h0a.65.65,0,0,0-.59-.38.67.67,0,0,0-.6.38L8.17,7.91l-1.86.28a.67.67,0,0,0-.52.44.66.66,0,0,0,.15.67L7.3,10.69l-.32,2a.67.67,0,0,0,.27.64.66.66,0,0,0,.38.12A.72.72,0,0,0,8,13.35l1.65-.91,1.65.91a.66.66,0,0,0,1-.68l-.32-2L13.26,9.3a.66.66,0,0,0,.15-.67A.67.67,0,0,0,12.89,8.19Z"/></g></g></g></svg>