<svg xmlns="http://www.w3.org/2000/svg" viewBox="0 0 24 24"><defs><style>.cls-1{fill:#38373a;}</style></defs><g id="Layer_2" data-name="Layer 2"><g id="_24px" data-name="24px"><path id="Donation_Box" data-name="Donation Box" class="cls-1" d="M23.77,6a1.19,1.19,0,0,0-.52-.47L12.59.14a1.29,1.29,0,0,0-1.18,0L.75,5.47A1.36,1.36,0,0,0,.22,6,1.31,1.31,0,0,0,0,6.68V17.35a1.3,1.3,0,0,0,.72,1.17l10.67,5.34A1.3,1.3,0,0,0,12,24H12a1.3,1.3,0,0,0,.58-.14l10.67-5.34h0A1.3,1.3,0,0,0,24,17.35V6.68A1.24,1.24,0,0,0,23.77,6ZM12,10.57l-.13-.07L4.16,6.64,6.65,5.4l7.84,3.92Zm0-7.85,7.84,3.92L17.37,7.88,9.53,4ZM10.71,20.65,2.57,16.57V8.72l8.14,4.08Zm10.72-4.08-8.14,4.08V12.8l8.14-4.08Z"/></g></g></svg>