<svg xmlns="http://www.w3.org/2000/svg" viewBox="0 0 24 24"><defs><style>.cls-1{fill:#38373a;}</style></defs><g id="Layer_2" data-name="Layer 2"><g id="_24px" data-name="24px"><g id="Confirm"><path class="cls-1" d="M20.49,3.51A12,12,0,1,0,24,12,12,12,0,0,0,20.49,3.51ZM18.67,18.67a9.43,9.43,0,1,1,0-13.34h0A9.46,9.46,0,0,1,18.67,18.67Z"/><path class="cls-1" d="M16.4,7.42,9.93,13.88,7.6,11.56a1.29,1.29,0,1,0-1.82,1.82L9,16.57a1.3,1.3,0,0,0,.73.36L10,17a1.28,1.28,0,0,0,.91-.37l7.35-7.34A1.29,1.29,0,0,0,16.4,7.42Z"/></g></g></g></svg>