<svg xmlns="http://www.w3.org/2000/svg" viewBox="0 0 24 24"><defs></defs><g id="Layer_2" data-name="Layer 2"><g id="_24px" data-name="24px"><g id="Noticeboard"><path class="cls-1" d="M5.78,11.5a1.29,1.29,0,0,0,1.29,1.29h9.86a1.29,1.29,0,1,0,0-2.57H7.07A1.28,1.28,0,0,0,5.78,11.5Z"/><path class="cls-1" d="M16.93,15.17H7.07a1.29,1.29,0,1,0,0,2.57h9.86a1.29,1.29,0,1,0,0-2.57Z"/><path class="cls-1" d="M23.59,2.44a1.29,1.29,0,0,0-.9-.35H15.48V1.31A1.31,1.31,0,0,0,14.17,0H9.83A1.31,1.31,0,0,0,8.52,1.31v.78H1.31A1.31,1.31,0,0,0,0,3.4V22.69A1.31,1.31,0,0,0,1.31,24H22.69A1.31,1.31,0,0,0,24,22.69V3.4A1.34,1.34,0,0,0,23.59,2.44Zm-2.16,19H2.57V4.66H8.52v.77a1.31,1.31,0,0,0,1.31,1.3h4.34a1.31,1.31,0,0,0,1.31-1.3V4.66h5.95Z"/></g></g></g></svg>