<svg xmlns="http://www.w3.org/2000/svg" viewBox="0 0 24 24"><defs><style>.cls-1{fill:#38373a;}</style></defs><g id="Layer_2" data-name="Layer 2"><g id="_24px" data-name="24px"><g id="Opening_Times" data-name="Opening Times"><path class="cls-1" d="M20.49,3.51A12,12,0,1,0,24,12,12,12,0,0,0,20.49,3.51ZM12,21.43A9.43,9.43,0,1,1,21.43,12,9.44,9.44,0,0,1,12,21.43Z"/><path class="cls-1" d="M18.43,12.48l-5.17-1.35V5.75a1.29,1.29,0,1,0-2.57,0V12a1.35,1.35,0,0,0,.21.72,1.32,1.32,0,0,0,.83.68L17.78,15a1.28,1.28,0,0,0,.65-2.48Z"/></g></g></g></svg>