<svg xmlns="http://www.w3.org/2000/svg" viewBox="0 0 19.2 24"><defs><style>.cls-1{fill:#38373a;}</style></defs><g id="Layer_2" data-name="Layer 2"><g id="_24px" data-name="24px"><g id="Description"><path class="cls-1" d="M5,12A1.26,1.26,0,0,0,6.22,13.3h6.51a1.29,1.29,0,0,0,0-2.57H6.22A1.27,1.27,0,0,0,5,12Z"/><path class="cls-1" d="M12.73,15.69H6.22a1.29,1.29,0,0,0,0,2.57h6.51a1.29,1.29,0,0,0,0-2.57Z"/><path class="cls-1" d="M18.82,6.3,13,.38A1.21,1.21,0,0,0,12.09,0H1.27A1.29,1.29,0,0,0,0,1.31V22.69A1.29,1.29,0,0,0,1.27,24H17.93a1.29,1.29,0,0,0,1.27-1.31V7.22A1.32,1.32,0,0,0,18.82,6.3ZM16.7,21.43H2.5V2.57h8.35V7.24a1.28,1.28,0,0,0,1.27,1.3H16.7Z"/></g></g></g></svg>