<svg xmlns="http://www.w3.org/2000/svg" viewBox="0 0 22.9 18.81"><defs><style>.cls-1{fill:#38373a;}</style></defs><g id="Layer_2" data-name="Layer 2"><g id="_24px" data-name="24px"><g id="Password_Hide" data-name="Password Hide"><path class="cls-1" d="M0,9.37V9.06a13.91,13.91,0,0,1,1.89-4L3.7,6.82A11.68,11.68,0,0,0,2.51,9.41c1.66,5.11,5.68,7,8.94,7a9.15,9.15,0,0,0,1.63-.15l2,2a11.45,11.45,0,0,1-10.5-1.7A12.82,12.82,0,0,1,.05,9.75V9.37Z"/><path class="cls-1" d="M12.33,12l6.39,6.39a1.22,1.22,0,0,0,.87.36,1.2,1.2,0,0,0,.86-.36,1.22,1.22,0,0,0,0-1.73l-1.07-1.07a13.2,13.2,0,0,0,3.47-5.86V9.06a12.82,12.82,0,0,0-4.54-6.77,11.42,11.42,0,0,0-12.84-.6L4.18.4A1.23,1.23,0,0,0,2.44.4a1.25,1.25,0,0,0,0,1.74L8.91,8.6v0L12.3,12Zm5.33,1.86L14,10.25a2.88,2.88,0,0,0,.11-.78,2.69,2.69,0,0,0-2.69-2.68,2.76,2.76,0,0,0-.77.11L7.26,3.48a9.12,9.12,0,0,1,4.19-1c3.26,0,7.28,1.84,8.94,7A10.57,10.57,0,0,1,17.66,13.88Z"/></g></g></g></svg>