<svg xmlns="http://www.w3.org/2000/svg" viewBox="0 0 22.9 18.32"><defs></defs><g id="Layer_2" data-name="Layer 2"><g id="_24px" data-name="24px"><g id="Password_See" data-name="Password See"><path class="cls-1" d="M11.45,6.54a2.62,2.62,0,1,0,2.69,2.62A2.66,2.66,0,0,0,11.45,6.54Z"/><path class="cls-1" d="M22.87,9.42v-.6a12.49,12.49,0,0,0-4.54-6.59,11.67,11.67,0,0,0-13.72,0A12.49,12.49,0,0,0,.05,8.82V9.5a12.49,12.49,0,0,0,4.54,6.59,11.67,11.67,0,0,0,13.72,0A12.49,12.49,0,0,0,22.85,9.5V9.42ZM11.45,15.93A9.33,9.33,0,0,1,2.51,9.16a9.29,9.29,0,0,1,17.88,0A9.33,9.33,0,0,1,11.45,15.93Z"/></g></g></g></svg>