<svg xmlns="http://www.w3.org/2000/svg" viewBox="0 0 19.2 24"><defs><style>.cls-1{fill:#38373a;}</style></defs><g id="Layer_2" data-name="Layer 2"><g id="_24px" data-name="24px"><g id="Fridge"><path class="cls-1" d="M17.93,0H1.27A1.29,1.29,0,0,0,0,1.31V21.45a1.29,1.29,0,0,0,1.27,1.31h0A1.27,1.27,0,0,0,2.55,24H3.68a1.26,1.26,0,0,0,1.25-1.24h9.51A1.26,1.26,0,0,0,15.69,24h1a1.27,1.27,0,0,0,1.25-1.24h0a1.29,1.29,0,0,0,1.27-1.31V1.31A1.29,1.29,0,0,0,17.93,0ZM2.5,20.19v-8H16.7v8ZM16.7,2.57V9.63H2.5V2.57Z"/><path class="cls-1" d="M5.67,7.41A1.27,1.27,0,0,0,6.92,6.12V5.4a1.25,1.25,0,1,0-2.5,0v.72A1.27,1.27,0,0,0,5.67,7.41Z"/><path class="cls-1" d="M5.72,13.79a1.27,1.27,0,0,0-1.25,1.29v.72a1.25,1.25,0,1,0,2.5,0v-.72A1.27,1.27,0,0,0,5.72,13.79Z"/></g></g></g></svg>