<svg xmlns="http://www.w3.org/2000/svg" viewBox="0 0 24 24"><defs></defs><g id="Layer_2" data-name="Layer 2"><g id="_24px" data-name="24px"><path id="Donation" class="cls-1" d="M22.91,7.85a7.09,7.09,0,0,0-4.22-3.71h0a7,7,0,0,0-5.4.7V1.36a1.29,1.29,0,1,0-2.58,0V2.63A8.56,8.56,0,0,0,1.63.52h0A9.51,9.51,0,0,0,4.22,4.59,7.33,7.33,0,0,0,1.09,7.85a11.47,11.47,0,0,0-.55,8.42,12.31,12.31,0,0,0,3.8,6.11,6.51,6.51,0,0,0,6.1,1.35A6.52,6.52,0,0,0,12,22.88a6.52,6.52,0,0,0,1.56.85,6.19,6.19,0,0,0,1.8.27,6.8,6.8,0,0,0,4.3-1.62,12.31,12.31,0,0,0,3.8-6.11A11.47,11.47,0,0,0,22.91,7.85ZM21,15.46a9.61,9.61,0,0,1-2.91,4.76,4.12,4.12,0,0,1-3.83.89,11.21,11.21,0,0,1-1.22-.75l-.37-.25a1.27,1.27,0,0,0-1.35,0l-.38.25a11.21,11.21,0,0,1-1.22.75,4.12,4.12,0,0,1-3.83-.89A9.61,9.61,0,0,1,3,15.46a8.65,8.65,0,0,1,.36-6.32A4.44,4.44,0,0,1,6,6.77a5.14,5.14,0,0,1,5.07,1.7,1.26,1.26,0,0,0,1.81,0A5.17,5.17,0,0,1,18,6.77a4.44,4.44,0,0,1,2.67,2.37A8.65,8.65,0,0,1,21,15.46Z"/></g></g></svg>