<svg xmlns="http://www.w3.org/2000/svg" viewBox="0 0 22.9 22.9"><defs><style>.cls-1{fill:#38373a;}</style></defs><g id="Layer_2" data-name="Layer 2"><g id="_24px" data-name="24px"><g id="Like"><path class="cls-1" d="M11.45,22.9a1.24,1.24,0,0,1-.95-.44L1.76,12.15A7.67,7.67,0,0,1,0,7.16a7.65,7.65,0,0,1,1.76-5A5.84,5.84,0,0,1,6.26,0a5.84,5.84,0,0,1,4.49,2.17l.7.82.7-.82a5.74,5.74,0,0,1,9,0h0a7.71,7.71,0,0,1,1.76,5,7.73,7.73,0,0,1-1.76,5L12.4,22.46A1.24,1.24,0,0,1,11.45,22.9ZM6.26,2.45a3.43,3.43,0,0,0-2.63,1.3,5.54,5.54,0,0,0,0,6.81l7.82,9.23,7.82-9.23a5.54,5.54,0,0,0,0-6.81h0a3.3,3.3,0,0,0-5.25,0L12.4,5.66a1.25,1.25,0,0,1-1.9,0L8.88,3.75A3.43,3.43,0,0,0,6.26,2.45Z"/></g></g></g></svg>