<svg xmlns="http://www.w3.org/2000/svg" viewBox="0 0 20 24"><defs></defs><g id="Layer_2" data-name="Layer 2"><g id="_24px" data-name="24px"><g id="Location"><path class="cls-1" d="M19.33,6.46A10.1,10.1,0,0,0,17.13,3,9.86,9.86,0,0,0,10,0,9.9,9.9,0,0,0,.64,6.5,10.25,10.25,0,0,0,0,10.73c.11,2,1.18,4.24,3.26,6.84a50.51,50.51,0,0,0,4.66,4.91c.39.37.84.79,1,.93A1.31,1.31,0,0,0,10,24h0a1.35,1.35,0,0,0,1.1-.57c.12-.13.54-.52.92-.87,2.52-2.32,7.76-7.15,8-11.84A10.88,10.88,0,0,0,19.33,6.46ZM17.38,10.6c-.16,3.65-5,8.16-7.14,10.08l-.22.2-.27-.25c-2.07-2-6.93-6.58-7.13-10A7.63,7.63,0,0,1,4.69,4.81,7.25,7.25,0,0,1,10,2.57a7.22,7.22,0,0,1,5.24,2.19A7.77,7.77,0,0,1,17.38,10.6Z"/><path class="cls-1" d="M10,6.66a2.82,2.82,0,1,0,2.86,2.82A2.84,2.84,0,0,0,10,6.66Z"/></g></g></g></svg>