<svg xmlns="http://www.w3.org/2000/svg" viewBox="0 0 24 19.2"><g id="Layer_2" data-name="Layer 2"><g id="_24px" data-name="24"><g id="Burger_Menu" data-name="Burger Menu"><path d="M1.29,2.5H22.71A1.27,1.27,0,0,0,24,1.25,1.27,1.27,0,0,0,22.71,0H1.29A1.27,1.27,0,0,0,0,1.25,1.27,1.27,0,0,0,1.29,2.5Z" class="cls-1"/><path d="M22.71,8.35H1.29a1.25,1.25,0,1,0,0,2.5H22.71a1.25,1.25,0,1,0,0-2.5Z" class="cls-1"/><path d="M22.71,16.7H1.29a1.25,1.25,0,1,0,0,2.5H22.71a1.25,1.25,0,1,0,0-2.5Z" class="cls-1"/></g></g></g></svg>