<svg xmlns="http://www.w3.org/2000/svg" viewBox="0 0 19.2 24"><defs><style>.cls-1{fill:#38373a;}</style></defs><g id="Layer_2" data-name="Layer 2"><g id="_24px" data-name="24px"><g id="Confirm_Password" data-name="Confirm Password"><path class="cls-1" d="M17.93,9.14H15.66V5.94A6,6,0,0,0,9.6,0,6,6,0,0,0,3.54,5.94v3.2H1.27A1.29,1.29,0,0,0,0,10.45V22.69A1.29,1.29,0,0,0,1.27,24H17.93a1.29,1.29,0,0,0,1.27-1.31V10.45A1.29,1.29,0,0,0,17.93,9.14ZM6,5.94A3.47,3.47,0,0,1,9.6,2.57a3.47,3.47,0,0,1,3.56,3.37v3.2H6ZM16.7,21.43H2.5V11.71H16.7Z"/><path class="cls-1" d="M7.38,19.78a1.15,1.15,0,0,0,.7.35.78.78,0,0,0,.22,0,1.24,1.24,0,0,0,.87-.36l4.74-4.73a1.24,1.24,0,0,0-1.75-1.75L8.28,17.19,7.07,16a1.24,1.24,0,0,0-1.75,1.75Z"/></g></g></g></svg>