<svg xmlns="http://www.w3.org/2000/svg" viewBox="0 0 24 24"><defs><style>.cls-1{fill:#38373a;}</style></defs><g id="Layer_2" data-name="Layer 2"><g id="_24px" data-name="24px"><g id="Contact"><path class="cls-1" d="M0,6.54C0,6.37,0,5.38.07,5V4.9a5.87,5.87,0,0,1,2-3.49A6,6,0,0,1,5.92,0,5.89,5.89,0,0,1,7.69.27a5.45,5.45,0,0,1,.87.35,1.3,1.3,0,0,1,.72,1l1,7.48a1.32,1.32,0,0,1-.43,1.15,5.94,5.94,0,0,1-1.41.93,9.85,9.85,0,0,0,1.89,2.58,10.16,10.16,0,0,0,2.44,1.79,5.86,5.86,0,0,1,.92-1.35,1.35,1.35,0,0,1,1.16-.41l7.5,1a1.32,1.32,0,0,1,1,.71,6.14,6.14,0,0,1,.4,1A5.78,5.78,0,0,1,24,18.13h0A5.87,5.87,0,0,1,18.76,24h-.07L17.6,24A17.59,17.59,0,0,1,5.16,18.89a17.48,17.48,0,0,1-3.78-5.55A17.36,17.36,0,0,1,0,6.54ZM2.65,5.27c0,.33-.06,1.15-.06,1.28a15,15,0,0,0,15,14.88l.9,0a3.3,3.3,0,0,0,2.91-3.27h0a3.51,3.51,0,0,0-.13-.91l-6-.8a3.47,3.47,0,0,0-.42,1.08,1.33,1.33,0,0,1-.64.89,1.35,1.35,0,0,1-1.11.09A12.74,12.74,0,0,1,8.5,15.57a12.61,12.61,0,0,1-3-4.74,1.37,1.37,0,0,1,.11-1.1,1.31,1.31,0,0,1,.91-.62A3.38,3.38,0,0,0,7.62,8.7l-.81-6a3.35,3.35,0,0,0-.89-.12A3.29,3.29,0,0,0,2.65,5.27ZM7,11.64H7Zm.75-2.21ZM12.28,17Zm2.24-.68h0Zm1.1-.41Z"/></g></g></g></svg>