<svg xmlns="http://www.w3.org/2000/svg" viewBox="0 0 22.9 22.9"><defs></defs><g id="Layer_2" data-name="Layer 2"><g id="_24px" data-name="24px"><path id="Pin" class="cls-1" d="M22.54,7.93,15,.36a1.23,1.23,0,0,0-1.74,0L10.47,3.12a1.25,1.25,0,0,0,0,1.74l.47.47L7.85,8.42a7.28,7.28,0,0,0-2.79,0A6.11,6.11,0,0,0,2,10a1.23,1.23,0,0,0-.36.87,1.24,1.24,0,0,0,.36.87l3.71,3.72L1.2,20.15h0L0,22.84a0,0,0,0,0,0,.05h0l2.68-1.18h0l4.66-4.44h0L11.15,21a1.24,1.24,0,0,0,.87.36h0A1.24,1.24,0,0,0,12.9,21a6.1,6.1,0,0,0,1.61-3.11,7.28,7.28,0,0,0,0-2.79L17.57,12l.47.47a1.23,1.23,0,0,0,1.74,0l2.76-2.76A1.23,1.23,0,0,0,22.54,7.93Zm-3.63,2-.47-.47a1.23,1.23,0,0,0-.87-.36,1.24,1.24,0,0,0-.87.36l-4.93,4.94L12,15a4.53,4.53,0,0,1-.12,3.22L4.65,11a4.59,4.59,0,0,1,3.22-.12l.69.21L13.49,6.2a1.23,1.23,0,0,0,0-1.74L13,4,14.1,2.91,20,8.8Z"/></g></g></svg>