<svg xmlns="http://www.w3.org/2000/svg" viewBox="0 0 19.2 24"><defs></defs><g id="Layer_2" data-name="Layer 2"><g id="_24px" data-name="24px"><g id="Presskit"><path class="cls-1" d="M17.53,0H1.67A1.69,1.69,0,0,0,0,1.71V22.29A1.69,1.69,0,0,0,1.67,24H17.53a1.69,1.69,0,0,0,1.67-1.71V1.71A1.69,1.69,0,0,0,17.53,0ZM16.7,2.57v9H14.87a.36.36,0,0,0,0-.09L12.26,6.87a.91.91,0,0,0-1.59,0L9.34,9.23l-.21-.38a.9.9,0,0,0-1.59,0L6.08,11.43l0,.09H2.5V2.57ZM2.5,21.43V14.09H16.7v7.34Z"/><path class="cls-1" d="M13.3,16.22H5.9a1.29,1.29,0,0,0,0,2.57h7.4a1.29,1.29,0,0,0,0-2.57Z"/><ellipse class="cls-1" cx="5.48" cy="5.65" rx="1.63" ry="1.67"/></g></g></g></svg>