<svg xmlns="http://www.w3.org/2000/svg" viewBox="0 0 19.29 24"><defs><style>.cls-1{fill:#38373a;}</style></defs><g id="Layer_2" data-name="Layer 2"><g id="_24px" data-name="24px"><g id="Local_Business" data-name="Local Business"><path class="cls-1" d="M19.28,22.81,17.86,7.6v0a1.08,1.08,0,0,0-1.08-1h-2.5v-2a4.57,4.57,0,1,0-9.14,0v2H2.51a1.09,1.09,0,0,0-1.08,1h0L0,22.81a1,1,0,0,0,.27.82,1.05,1.05,0,0,0,.81.37H18.2a1.09,1.09,0,0,0,1.08-1.19ZM7.28,4.6a2.43,2.43,0,1,1,4.85,0v2H7.28Zm-5,17.26L3.47,8.75H5.13v1.36a1.08,1.08,0,0,0,2.15,0V8.75h4.85v1.36a1.07,1.07,0,0,0,2.14,0V8.75h1.54L17,21.86Z"/><path class="cls-1" d="M11.39,12.47a1.94,1.94,0,0,0-1.51.72l-.24.28-.23-.28a1.94,1.94,0,0,0-3,0,2.67,2.67,0,0,0,0,3.35L9.32,20a.44.44,0,0,0,.32.15A.42.42,0,0,0,10,20l2.93-3.46a2.67,2.67,0,0,0,0-3.35A1.93,1.93,0,0,0,11.39,12.47Z"/></g></g></g></svg>