<svg xmlns="http://www.w3.org/2000/svg" viewBox="0 0 24 24"><defs></defs><g id="Layer_2" data-name="Layer 2"><g id="_24px" data-name="24px"><g id="Log_Out" data-name="Log Out"><path class="cls-1" d="M14.93,17.15a1.28,1.28,0,0,0-1.28,1.29v3H2.57V2.57H13.65v3a1.29,1.29,0,0,0,2.57,0V1.31A1.31,1.31,0,0,0,14.91,0H1.31A1.31,1.31,0,0,0,0,1.31V22.69A1.31,1.31,0,0,0,1.31,24h13.6a1.31,1.31,0,0,0,1.31-1.31V18.44A1.29,1.29,0,0,0,14.93,17.15Z"/><path class="cls-1" d="M23.6,11,19.75,7.4A1.28,1.28,0,1,0,18,9.27l1.53,1.44H8.5a1.29,1.29,0,0,0,0,2.58h11L18,14.73A1.28,1.28,0,0,0,18.87,17a1.26,1.26,0,0,0,.88-.35L23.6,13a1.4,1.4,0,0,0,0-2Z"/></g></g></g></svg>