<svg xmlns="http://www.w3.org/2000/svg" viewBox="0 0 24 24"><defs></defs><g id="Layer_2" data-name="Layer 2"><g id="_24px" data-name="24px"><g id="Profile"><path class="cls-1" d="M12,12.87A6.44,6.44,0,1,0,5.56,6.44,6.44,6.44,0,0,0,12,12.87Zm0-10.3A3.87,3.87,0,1,1,8.13,6.44,3.88,3.88,0,0,1,12,2.57Z"/><path class="cls-1" d="M15.69,14.85H8.31A8.1,8.1,0,0,0,0,22.66a1.3,1.3,0,0,0,.38.93,1.32,1.32,0,0,0,.93.38l21.38,0h0A1.3,1.3,0,0,0,24,22.69h0A8.1,8.1,0,0,0,15.69,14.85ZM2.74,21.4a5.69,5.69,0,0,1,5.57-4h7.38a5.68,5.68,0,0,1,5.57,4Z"/></g></g></g></svg>