<svg id="Layer_1" data-name="Layer 1" xmlns="http://www.w3.org/2000/svg" viewBox="0 0 27 43"><defs><style>.cls-1{fill:#f04770;}.cls-2{fill:#fff;}</style></defs><g id="BoxRedMarker"><path class="cls-1" d="M1654.24,2731.45c0,6.7-12.19,28.23-13.12,29.73a.07.07,0,0,1-.11,0c-.93-1.5-13.12-23-13.12-29.73,0-7,5.9-12.61,13.17-12.61S1654.24,2724.49,1654.24,2731.45Z" transform="translate(-1627.56 -2718.53)"/><path class="cls-2" d="M1641.06,2761.53a.39.39,0,0,1-.33-.19c-.46-.73-3.72-6.45-6.93-12.94-4.14-8.39-6.24-14.09-6.24-17,0-7.13,6.06-12.92,13.5-12.92s13.5,5.79,13.5,12.92c0,2.86-2.1,8.56-6.24,17-3.2,6.49-6.46,12.21-6.92,12.94A.39.39,0,0,1,1641.06,2761.53Zm0-42.37c-7.08,0-12.84,5.51-12.84,12.29,0,6.2,10.86,25.82,12.84,29.19,2-3.37,12.85-23,12.85-29.19C1653.91,2724.67,1648.15,2719.16,1641.06,2719.16Z" transform="translate(-1627.56 -2718.53)"/><path class="cls-2" d="M1648.09,2728.68a.84.84,0,0,0-.32-.27l-6.42-3.08a.81.81,0,0,0-.71,0l-6.42,3.08a.84.84,0,0,0-.32.27.77.77,0,0,0-.13.42v6.15a.75.75,0,0,0,.43.68l6.43,3.07a.72.72,0,0,0,.35.08h0a.72.72,0,0,0,.35-.08l6.42-3.07a.76.76,0,0,0,.44-.68v-6.15A.77.77,0,0,0,1648.09,2728.68Zm-7.1-1.86,4.73,2.26-1.49.71-4.73-2.26Zm-3.22,1.54,4.73,2.26-1.51.72-4.72-2.26Zm-2.45,1.92,4.9,2.35v4.52l-4.9-2.35Zm11.35,4.52-4.9,2.35v-4.52l4.9-2.35Z" transform="translate(-1627.56 -2718.53)"/></g></svg>