<svg xmlns="http://www.w3.org/2000/svg" width="128" height="128" viewBox="0 0 128 128">
  <defs>
    <style>
      .cls-1 {
        fill: rgba(255,255,255,0.61);
        opacity: 0;
      }

      .cls-2 {
        fill: #bce1e2;
      }

      .cls-3 {
        fill: #77bea2;
      }

      .cls-4 {
        fill: #c6c6c6;
      }

      .cls-5 {
        fill: #ce416b;
      }

      .cls-6 {
        fill: #e84870;
      }

      .cls-7 {
        fill: #efefef;
      }

      .cls-8 {
        fill: #ffd341;
      }

      .cls-9 {
        fill: #e2e2e2;
        font-size: 12px;
        font-family: Como-ExtraBold, Como;
        font-weight: 800;
        letter-spacing: 0.036em;
      }
    </style>
  </defs>
  <g id="Business_icon" data-name="Business icon" transform="translate(-12937 -20619)">
    <rect id="Rectangle_486" data-name="Rectangle 486" class="cls-1" width="128" height="128" transform="translate(12937 20619)"/>
    <g id="Group_981" data-name="Group 981" transform="translate(12383.66 20140.326)">
      <rect id="Rectangle_338" data-name="Rectangle 338" class="cls-2" width="112.345" height="54.994" rx="3.075" transform="translate(561.197 546.444)"/>
      <rect id="Rectangle_339" data-name="Rectangle 339" class="cls-3" width="117.216" height="5.342" rx="2.002" transform="translate(558.525 599.251)"/>
      <path id="Path_270" data-name="Path 270" class="cls-4" d="M569.9,570.207c0,2.273-3.658,4.114-8.171,4.114s-8.171-1.842-8.171-4.114S569.9,567.935,569.9,570.207Z" transform="translate(-0.059 -23.871)"/>
      <path id="Path_271" data-name="Path 271" class="cls-4" d="M701.454,570.207c0,2.273-3.658,4.114-8.171,4.114s-8.171-1.842-8.171-4.114S701.454,567.935,701.454,570.207Z" transform="translate(-35.847 -23.871)"/>
      <path id="Path_272" data-name="Path 272" class="cls-5" d="M679.654,570.207c0,2.273-3.658,4.114-8.17,4.114s-8.171-1.842-8.171-4.114S679.654,567.935,679.654,570.207Z" transform="translate(-29.917 -23.871)"/>
      <path id="Path_273" data-name="Path 273" class="cls-4" d="M657.746,570.207c0,2.273-3.658,4.114-8.171,4.114s-8.17-1.842-8.17-4.114S657.746,567.935,657.746,570.207Z" transform="translate(-23.957 -23.871)"/>
      <path id="Path_274" data-name="Path 274" class="cls-5" d="M635.3,570.207c0,2.273-3.659,4.114-8.171,4.114s-8.171-1.842-8.171-4.114S635.3,567.935,635.3,570.207Z" transform="translate(-17.85 -23.871)"/>
      <path id="Path_275" data-name="Path 275" class="cls-4" d="M614.037,570.207c0,2.273-3.658,4.114-8.171,4.114s-8.171-1.842-8.171-4.114S614.037,567.935,614.037,570.207Z" transform="translate(-12.067 -23.871)"/>
      <path id="Path_276" data-name="Path 276" class="cls-5" d="M591.59,570.207c0,2.273-3.658,4.114-8.171,4.114s-8.17-1.842-8.17-4.114S591.59,567.935,591.59,570.207Z" transform="translate(-5.96 -23.871)"/>
      <path id="Path_277" data-name="Path 277" class="cls-5" d="M722.921,570.414c0,2.273-3.729,4.02-8.328,4.02s-8.327-1.842-8.327-4.114S722.921,568.872,722.921,570.414Z" transform="translate(-41.602 -23.984)"/>
      <path id="Path_278" data-name="Path 278" class="cls-6" d="M681.533,557.487h-126.3A1.183,1.183,0,0,1,554.093,556l8.69-32.236a3.259,3.259,0,0,1,3.147-2.412H669.409a1.183,1.183,0,0,1,1.129.83Z" transform="translate(-0.193 -11.043)"/>
      <path id="Path_279" data-name="Path 279" class="cls-7" d="M562.969,522.267l-9.629,35.409h15.9l7.514-36.355H564.207A1.284,1.284,0,0,0,562.969,522.267Z" transform="translate(0 -11.036)"/>
      <path id="Path_280" data-name="Path 280" class="cls-7" d="M602.41,521.294,597.7,557.63h16.341l1.257-36.335Z" transform="translate(-12.067 -11.029)"/>
      <path id="Path_281" data-name="Path 281" class="cls-7" d="M641.081,521.294l.295,36.178,16.184.04-3.123-36.218Z" transform="translate(-23.869 -11.029)"/>
      <path id="Path_282" data-name="Path 282" class="cls-7" d="M677.774,521.321h13.12l7.621,36.159H683.588Z" transform="translate(-33.851 -11.036)"/>
      <rect id="Rectangle_340" data-name="Rectangle 340" class="cls-3" width="56.683" height="27.183" rx="3.157" transform="translate(566.107 556.814)"/>
      <rect id="Rectangle_341" data-name="Rectangle 341" class="cls-3" width="33.271" height="39.91" rx="3.137" transform="translate(635.026 556.814)"/>
      <rect id="Rectangle_342" data-name="Rectangle 342" class="cls-3" width="79.859" height="26.523" rx="3.209" transform="translate(576.399 480.754)"/>
      <g id="Group_729" data-name="Group 729" transform="translate(579.24 482.013)">
        <g id="Group_728" data-name="Group 728">
          <circle id="Ellipse_71" data-name="Ellipse 71" class="cls-8" cx="1.728" cy="1.728" r="1.728"/>
          <circle id="Ellipse_72" data-name="Ellipse 72" class="cls-8" cx="1.728" cy="1.728" r="1.728" transform="translate(0 4.729)"/>
          <circle id="Ellipse_73" data-name="Ellipse 73" class="cls-8" cx="1.728" cy="1.728" r="1.728" transform="translate(0 9.932)"/>
          <circle id="Ellipse_74" data-name="Ellipse 74" class="cls-8" cx="1.728" cy="1.728" r="1.728" transform="translate(0 15.24)"/>
          <circle id="Ellipse_75" data-name="Ellipse 75" class="cls-8" cx="1.728" cy="1.728" r="1.728" transform="translate(0 20.547)"/>
          <circle id="Ellipse_76" data-name="Ellipse 76" class="cls-8" cx="1.728" cy="1.728" r="1.728" transform="translate(70.694)"/>
          <circle id="Ellipse_77" data-name="Ellipse 77" class="cls-8" cx="1.728" cy="1.728" r="1.728" transform="translate(70.694 20.547)"/>
          <circle id="Ellipse_78" data-name="Ellipse 78" class="cls-8" cx="1.728" cy="1.728" r="1.728" transform="translate(14.497 20.547)"/>
          <circle id="Ellipse_79" data-name="Ellipse 79" class="cls-8" cx="1.728" cy="1.728" r="1.728" transform="translate(6.278 20.547)"/>
          <circle id="Ellipse_80" data-name="Ellipse 80" class="cls-8" cx="1.728" cy="1.728" r="1.728" transform="translate(22.716 20.547)"/>
          <circle id="Ellipse_81" data-name="Ellipse 81" class="cls-8" cx="1.728" cy="1.728" r="1.728" transform="translate(39.536 20.547)"/>
          <circle id="Ellipse_82" data-name="Ellipse 82" class="cls-8" cx="1.728" cy="1.728" r="1.728" transform="translate(31.317 20.547)"/>
          <circle id="Ellipse_83" data-name="Ellipse 83" class="cls-8" cx="1.728" cy="1.728" r="1.728" transform="translate(47.754 20.547)"/>
          <circle id="Ellipse_84" data-name="Ellipse 84" class="cls-8" cx="1.728" cy="1.728" r="1.728" transform="translate(56.169 20.547)"/>
          <circle id="Ellipse_85" data-name="Ellipse 85" class="cls-8" cx="1.728" cy="1.728" r="1.728" transform="translate(64.388 20.547)"/>
          <circle id="Ellipse_86" data-name="Ellipse 86" class="cls-8" cx="1.728" cy="1.728" r="1.728" transform="translate(14.565)"/>
          <circle id="Ellipse_87" data-name="Ellipse 87" class="cls-8" cx="1.728" cy="1.728" r="1.728" transform="translate(6.346)"/>
          <circle id="Ellipse_88" data-name="Ellipse 88" class="cls-8" cx="1.728" cy="1.728" r="1.728" transform="translate(22.784)"/>
          <circle id="Ellipse_89" data-name="Ellipse 89" class="cls-8" cx="1.728" cy="1.728" r="1.728" transform="translate(39.604 0)"/>
          <circle id="Ellipse_90" data-name="Ellipse 90" class="cls-8" cx="1.728" cy="1.728" r="1.728" transform="translate(31.385)"/>
          <circle id="Ellipse_91" data-name="Ellipse 91" class="cls-8" cx="1.728" cy="1.728" r="1.728" transform="translate(47.823 0)"/>
          <circle id="Ellipse_92" data-name="Ellipse 92" class="cls-8" cx="1.728" cy="1.728" r="1.728" transform="translate(56.238)"/>
          <circle id="Ellipse_93" data-name="Ellipse 93" class="cls-8" cx="1.728" cy="1.728" r="1.728" transform="translate(64.456)"/>
          <circle id="Ellipse_94" data-name="Ellipse 94" class="cls-8" cx="1.728" cy="1.728" r="1.728" transform="translate(70.694 4.715)"/>
          <circle id="Ellipse_95" data-name="Ellipse 95" class="cls-8" cx="1.728" cy="1.728" r="1.728" transform="translate(70.694 9.919)"/>
          <circle id="Ellipse_96" data-name="Ellipse 96" class="cls-8" cx="1.728" cy="1.728" r="1.728" transform="translate(70.694 15.226)"/>
        </g>
      </g>
      <text id="BUSINESS" class="cls-9" transform="translate(579.971 486.227)"><tspan x="4.935" y="12">BUSINESS</tspan></text>
    </g>
  </g>
</svg>
