<svg id="Layer_1" data-name="Layer 1" xmlns="http://www.w3.org/2000/svg" viewBox="0 0 27 43"><defs><style>.cls-1{fill:#3273dc;}.cls-2{fill:#fff;}</style></defs><g id="FridgeBlueMarker"><path class="cls-1" d="M554.24,531.45c0,6.7-12.19,28.23-13.12,29.73a.07.07,0,0,1-.11,0c-.93-1.5-13.12-23-13.12-29.73,0-7,5.9-12.61,13.17-12.61S554.24,524.49,554.24,531.45Z" transform="translate(-527.56 -518.53)"/><path class="cls-2" d="M541.06,561.53h0a.39.39,0,0,1-.33-.19c-.46-.73-3.72-6.45-6.93-12.94-4.14-8.39-6.24-14.09-6.24-16.95,0-7.13,6.06-12.92,13.5-12.92s13.5,5.79,13.5,12.92c0,2.86-2.1,8.56-6.24,16.95-3.2,6.49-6.46,12.21-6.92,12.94A.39.39,0,0,1,541.06,561.53Zm0-42.37c-7.08,0-12.84,5.51-12.84,12.29,0,6.2,10.86,25.82,12.84,29.19,2-3.37,12.85-23,12.85-29.19C553.91,524.67,548.15,519.16,541.06,519.16Z" transform="translate(-527.56 -518.53)"/><path class="cls-2" d="M546.14,525.21H535.85a.77.77,0,0,0-.79.76v11.6a.77.77,0,0,0,.79.76h0a.76.76,0,0,0,.78.71h.69a.76.76,0,0,0,.78-.71H544a.76.76,0,0,0,.78.71h.59a.75.75,0,0,0,.77-.71h0a.77.77,0,0,0,.79-.76V526A.77.77,0,0,0,546.14,525.21Zm-9.53,11.64v-4.61h8.77v4.61Zm8.77-10.16v4.07h-8.77v-4.07Z" transform="translate(-527.56 -518.53)"/><path class="cls-2" d="M538.56,529.48a.76.76,0,0,0,.78-.74v-.42a.78.78,0,0,0-1.55,0v.42A.76.76,0,0,0,538.56,529.48Z" transform="translate(-527.56 -518.53)"/><path class="cls-2" d="M538.59,533.16a.76.76,0,0,0-.77.74v.42a.78.78,0,0,0,1.55,0v-.42A.76.76,0,0,0,538.59,533.16Z" transform="translate(-527.56 -518.53)"/></g></svg>