<svg xmlns="http://www.w3.org/2000/svg" width="128" height="128" viewBox="0 0 128 128">
  <defs>
    <style>
      .cls-1 {
        fill: rgba(255,255,255,0.61);
        opacity: 0;
      }

      .cls-2 {
        fill: #38373a;
      }

      .cls-3 {
        fill: #d13964;
      }

      .cls-4 {
        fill: #e84870;
      }

      .cls-5 {
        fill: #e7e6e9;
      }

      .cls-6, .cls-7 {
        fill: #d6d6d6;
      }

      .cls-7 {
        stroke: #38373a;
        stroke-miterlimit: 10;
        stroke-width: 0.5px;
      }
    </style>
  </defs>
  <g id="Fridge_icon" data-name="Fridge icon" transform="translate(-12793 -20619)">
    <rect id="Rectangle_485" data-name="Rectangle 485" class="cls-1" width="128" height="128" transform="translate(12793 20619)"/>
    <g id="Group_980" data-name="Group 980" transform="translate(12437.026 20561.84)">
      <rect id="Rectangle_410" data-name="Rectangle 410" class="cls-2" width="2.402" height="2.082" transform="translate(418.583 170.426)"/>
      <rect id="Rectangle_411" data-name="Rectangle 411" class="cls-2" width="2.402" height="2.082" transform="translate(418.583 95.155)"/>
      <path id="Path_368" data-name="Path 368" class="cls-2" d="M449.208,148.372l3.924,2.562-.56,3.443-3.363-2.162Z" transform="translate(-31.025 -33.999)"/>
      <path id="Path_369" data-name="Path 369" class="cls-2" d="M449.208,166.094l3.283-2.4v3.924l-2.883.881Z" transform="translate(-31.025 -39.709)"/>
      <rect id="Rectangle_412" data-name="Rectangle 412" class="cls-2" width="5.685" height="1.842" transform="translate(369.177 183.318)"/>
      <rect id="Rectangle_413" data-name="Rectangle 413" class="cls-2" width="5.685" height="1.842" transform="translate(411.203 183.318)"/>
      <path id="Rectangle_414" data-name="Rectangle 414" class="cls-3" d="M2.553,0H51.338a2.553,2.553,0,0,1,2.553,2.553V6.575a2.553,2.553,0,0,1-2.553,2.553H5.064A5.064,5.064,0,0,1,0,4.065V2.553A2.553,2.553,0,0,1,2.553,0Z" transform="translate(365.974 174.67)"/>
      <rect id="Rectangle_415" data-name="Rectangle 415" class="cls-4" width="52.957" height="85.841" transform="translate(366.267 90.751)"/>
      <rect id="Rectangle_416" data-name="Rectangle 416" class="cls-4" width="53.17" height="85.521" transform="translate(420.665 91.072)"/>
      <g id="Group_875" data-name="Group 875" transform="translate(369.177 93.474)">
        <rect id="Rectangle_417" data-name="Rectangle 417" class="cls-5" width="47.712" height="83.118"/>
        <rect id="Rectangle_418" data-name="Rectangle 418" class="cls-5" width="47.885" height="80.236" transform="translate(54.051)"/>
      </g>
      <path id="Path_370" data-name="Path 370" class="cls-6" d="M409.734,141.42H380.551l-9.471,4.922h47.712Z" transform="translate(-1.903 -31.407)"/>
      <path id="Path_371" data-name="Path 371" class="cls-6" d="M412.827,201.713H376.181l-5.74,3.363h48.125Z" transform="translate(-1.665 -53.881)"/>
      <path id="Path_372" data-name="Path 372" class="cls-6" d="M413.827,241.968H377.181l-5.74,3.363h48.125Z" transform="translate(-2.038 -68.886)"/>
      <rect id="Rectangle_419" data-name="Rectangle 419" class="cls-6" width="47.885" height="5.872" transform="translate(423.228 131.43)"/>
      <rect id="Rectangle_420" data-name="Rectangle 420" class="cls-6" width="47.885" height="4.738" transform="translate(423.228 110.61)"/>
      <rect id="Rectangle_421" data-name="Rectangle 421" class="cls-6" width="47.885" height="11.104" transform="translate(423.228 162.579)"/>
      <g id="Group_876" data-name="Group 876" transform="translate(366.054 57.16)">
        <rect id="Rectangle_422" data-name="Rectangle 422" class="cls-2" width="0.881" height="2.162" transform="translate(52.69 8.168)"/>
        <rect id="Rectangle_423" data-name="Rectangle 423" class="cls-2" width="0.881" height="2.162" transform="translate(52.69 28.24)"/>
        <path id="Rectangle_424" data-name="Rectangle 424" class="cls-3" d="M2.362,0H50.473A2.617,2.617,0,0,1,53.09,2.617V33.712a0,0,0,0,1,0,0H0a0,0,0,0,1,0,0V2.362A2.362,2.362,0,0,1,2.362,0Z"/>
        <rect id="Rectangle_425" data-name="Rectangle 425" class="cls-4" width="53.09" height="28.987" rx="2.872" transform="translate(0 3.603)"/>
        <rect id="Rectangle_426" data-name="Rectangle 426" class="cls-7" width="2.242" height="16.736" rx="1.121" transform="translate(2.963 9.956)"/>
      </g>
    </g>
  </g>
</svg>
