<svg xmlns="http://www.w3.org/2000/svg" width="128" height="128" viewBox="0 0 128 128"><defs><style>.cls-1{fill:transparent}.cls-2{fill:#38373a}.cls-3{fill:#d13964}.cls-4{fill:#e84870}.cls-5{fill:#e7e6e9}.cls-11,.cls-24,.cls-6,.cls-7{fill:#d6d6d6}.cls-7{stroke:#38373a;stroke-miterlimit:10;stroke-width:.25px}.cls-8{fill:#f4f3f2}.cls-9{fill:#f9934e}.cls-10{fill:#ffd341}.cls-11{opacity:.61}.cls-12{fill:#f33}.cls-13{fill:#5082ff}.cls-14{fill:#5ed366}.cls-15{fill:#b55252}.cls-16{fill:#ff8415}.cls-17{fill:#ffa143}.cls-18{fill:#e7f4c1}.cls-19{fill:#cd33dd}.cls-20{fill:#f22fc0}.cls-21{fill:#f7c026}.cls-22{fill:#ffa80d}.cls-23{fill:#e29314}.cls-24{opacity:.29}.cls-25{fill:#ff5910}.cls-26{fill:#e04812}.cls-27{fill:#feb78b}.cls-28{fill:#fdc9a2}.cls-29{fill:#fe4f3e}</style></defs><g id="Fridge_icon_full" data-name="Fridge icon full" transform="translate(-11808 -20770)"><rect id="Rectangle_528" width="128" height="128" class="cls-1" data-name="Rectangle 528" transform="translate(11808 20770)"/><g id="full_fridge_128x153" data-name="full fridge 128x153" transform="translate(11818 20770)"><rect id="Rectangle_488" width="2.393" height="2.083" class="cls-2" data-name="Rectangle 488" transform="translate(52.371 113.267)"/><rect id="Rectangle_489" width="2.393" height="2.083" class="cls-2" data-name="Rectangle 489" transform="translate(52.371 37.998)"/><path id="Path_476" d="M62.12,68.39l3.907,2.56L65.466,74.4,62.12,72.23Z" class="cls-2" data-name="Path 476" transform="translate(-10.15 -11.175)"/><path id="Path_477" d="M62.12,82.279l3.271-2.409v3.924l-2.87.887Z" class="cls-2" data-name="Path 477" transform="translate(-10.15 -13.051)"/><rect id="Rectangle_490" width="5.655" height="1.841" class="cls-2" data-name="Rectangle 490" transform="translate(3.187 126.159)"/><rect id="Rectangle_491" width="5.655" height="1.841" class="cls-2" data-name="Rectangle 491" transform="translate(45.026 126.159)"/><path id="Path_478" d="M2.133,140.46H51.493a2.133,2.133,0,0,1,2.15,2.125v4.861a2.133,2.133,0,0,1-2.133,2.133H4.233A4.233,4.233,0,0,1,0,145.354v-2.769A2.133,2.133,0,0,1,2.133,140.46Z" class="cls-3" data-name="Path 478" transform="translate(0 -22.951)"/><rect id="Rectangle_492" width="52.714" height="85.844" class="cls-4" data-name="Rectangle 492" transform="translate(0.293 33.59)"/><rect id="Rectangle_493" width="52.932" height="85.517" class="cls-4" data-name="Rectangle 493" transform="translate(54.446 33.916)"/><rect id="Rectangle_494" width="47.494" height="83.116" class="cls-5" data-name="Rectangle 494" transform="translate(3.187 36.317)"/><rect id="Rectangle_495" width="47.67" height="80.238" class="cls-5" data-name="Rectangle 495" transform="translate(56.989 36.317)"/><path id="Path_479" d="M42.285,63.17H13.238L3.81,68.1H51.3Z" class="cls-6" data-name="Path 479" transform="translate(-0.623 -10.322)"/><path id="Path_480" d="M45.528,108.38H9.044L3.33,111.743H51.242Z" class="cls-6" data-name="Path 480" transform="translate(-0.544 -17.709)"/><path id="Path_481" d="M46.27,138.56H9.794L4.08,141.923h47.9Z" class="cls-6" data-name="Path 481" transform="translate(-0.667 -22.641)"/><rect id="Rectangle_496" width=".878" height="2.158" class="cls-2" data-name="Rectangle 496" transform="translate(52.53 8.165)"/><rect id="Rectangle_497" width=".878" height="2.158" class="cls-2" data-name="Rectangle 497" transform="translate(52.53 28.244)"/><path id="Path_482" d="M2.074,0H50.756a2.192,2.192,0,0,1,2.192,2.192V33.715H.1V1.974A1.974,1.974,0,0,1,2.074,0Z" class="cls-3" data-name="Path 482" transform="translate(-0.016 0)"/><rect id="Rectangle_498" width="52.848" height="28.988" class="cls-4" data-name="Rectangle 498" rx="2.87" transform="translate(0.084 3.606)"/><rect id="Rectangle_499" width="2.234" height="16.732" class="cls-7" data-name="Rectangle 499" rx="1.117" transform="translate(3.028 9.956)"/><ellipse id="Ellipse_133" cx="2.652" cy="3.464" class="cls-8" data-name="Ellipse 133" rx="2.652" ry="3.464" transform="translate(87.015 49.267)"/><ellipse id="Ellipse_134" cx="2.652" cy="3.464" class="cls-9" data-name="Ellipse 134" rx="2.652" ry="3.464" transform="translate(81.393 49.267)"/><ellipse id="Ellipse_135" cx="2.652" cy="3.464" class="cls-8" data-name="Ellipse 135" rx="2.652" ry="3.464" transform="translate(75.771 49.267)"/><ellipse id="Ellipse_136" cx="2.652" cy="3.464" class="cls-9" data-name="Ellipse 136" rx="2.652" ry="3.464" transform="translate(70.157 49.267)"/><ellipse id="Ellipse_137" cx="2.652" cy="3.464" class="cls-8" data-name="Ellipse 137" rx="2.652" ry="3.464" transform="translate(64.535 49.267)"/><ellipse id="Ellipse_138" cx="2.652" cy="3.464" class="cls-9" data-name="Ellipse 138" rx="2.652" ry="3.464" transform="translate(58.913 49.267)"/><rect id="Rectangle_500" width="9.035" height="6.007" class="cls-10" data-name="Rectangle 500" transform="translate(94.477 50.313)"/><rect id="Rectangle_501" width="47.67" height="4.735" class="cls-11" data-name="Rectangle 501" transform="translate(56.989 53.45)"/><rect id="Rectangle_502" width="9.604" height="2.058" class="cls-8" data-name="Rectangle 502" rx="1.029" transform="translate(90.319 65.974)"/><rect id="Rectangle_503" width="7.998" height="1.506" class="cls-8" data-name="Rectangle 503" transform="translate(91.123 67.94)"/><rect id="Rectangle_504" width="9.805" height="9.847" class="cls-8" data-name="Rectangle 504" rx="2.11" transform="translate(90.227 69.304)"/><rect id="Rectangle_505" width="9.027" height="1.615" class="cls-12" data-name="Rectangle 505" rx=".807" transform="translate(90.604 66.184)"/><path id="Path_483" d="M109.026,87.21h7.529a.728.728,0,0,1,.728.728v3.346a1.765,1.765,0,0,1-1.707,1.748h-5.522a1.765,1.765,0,0,1-1.765-1.765V87.921a.728.728,0,0,1,.736-.711Z" class="cls-12" data-name="Path 483" transform="translate(-17.694 -14.25)"/><rect id="Rectangle_506" width="9.604" height="2.058" class="cls-8" data-name="Rectangle 506" rx="1.029" transform="translate(77.837 65.974)"/><rect id="Rectangle_507" width="7.998" height="1.506" class="cls-8" data-name="Rectangle 507" transform="translate(78.641 67.94)"/><rect id="Rectangle_508" width="9.805" height="9.847" class="cls-8" data-name="Rectangle 508" rx="2.11" transform="translate(77.737 69.304)"/><rect id="Rectangle_509" width="9.027" height="1.615" class="cls-13" data-name="Rectangle 509" rx=".807" transform="translate(78.113 66.184)"/><path id="Path_484" d="M94.1,87.21h7.529a.728.728,0,0,1,.728.728v3.346a1.765,1.765,0,0,1-1.765,1.765H95.135a1.765,1.765,0,0,1-1.765-1.765V87.938a.728.728,0,0,1,.728-.728Z" class="cls-13" data-name="Path 484" transform="translate(-15.257 -14.25)"/><rect id="Rectangle_510" width="9.604" height="2.058" class="cls-8" data-name="Rectangle 510" rx="1.029" transform="translate(62.226 65.974)"/><rect id="Rectangle_511" width="7.998" height="1.506" class="cls-8" data-name="Rectangle 511" transform="translate(63.03 67.94)"/><rect id="Rectangle_512" width="9.805" height="9.847" class="cls-8" data-name="Rectangle 512" rx="2.11" transform="translate(62.126 69.304)"/><rect id="Rectangle_513" width="9.027" height="1.615" class="cls-14" data-name="Rectangle 513" rx=".807" transform="translate(62.502 66.184)"/><path id="Path_485" d="M75.438,87.21h7.529a.728.728,0,0,1,.728.728v3.346a1.765,1.765,0,0,1-1.765,1.765H76.475a1.765,1.765,0,0,1-1.765-1.765V87.938A.728.728,0,0,1,75.438,87.21Z" class="cls-14" data-name="Path 485" transform="translate(-12.208 -14.25)"/><rect id="Rectangle_514" width="1.765" height="1.682" class="cls-8" data-name="Rectangle 514" transform="translate(63.247 94.243)"/><path id="Path_486" d="M76.063,114.33h0a3.648,3.648,0,0,1,3.648,3.648v13.386a1.673,1.673,0,0,1-1.673,1.673H74.063a1.673,1.673,0,0,1-1.673-1.673V117.978a3.648,3.648,0,0,1,3.648-3.648Z" class="cls-8" data-name="Path 486" transform="translate(-11.828 -18.681)"/><rect id="Rectangle_515" width="2.886" height="1.556" class="cls-12" data-name="Rectangle 515" rx=".4" transform="translate(62.687 93.306)"/><path id="Path_487" d="M73.5,117.7h5.271a.728.728,0,0,1,.728.728v13.135a1.765,1.765,0,0,1-1.765,1.765h-3.2a1.765,1.765,0,0,1-1.765-1.765V118.428a.728.728,0,0,1,.728-.728Z" class="cls-15" data-name="Path 487" transform="translate(-11.889 -19.232)"/><rect id="Rectangle_516" width="7.555" height="4.375" class="cls-12" data-name="Rectangle 516" transform="translate(60.444 101.848)"/><rect id="Rectangle_517" width="1.765" height="1.682" class="cls-8" data-name="Rectangle 517" transform="translate(74.483 94.243)"/><path id="Path_488" d="M89.493,114.33h0a3.648,3.648,0,0,1,3.648,3.648v13.386a1.673,1.673,0,0,1-1.673,1.673H87.493a1.673,1.673,0,0,1-1.673-1.673V117.978a3.648,3.648,0,0,1,3.648-3.648Z" class="cls-8" data-name="Path 488" transform="translate(-14.023 -18.681)"/><rect id="Rectangle_518" width="2.886" height="1.556" class="cls-16" data-name="Rectangle 518" rx=".4" transform="translate(73.922 93.306)"/><path id="Path_489" d="M86.928,117.7H92.2a.728.728,0,0,1,.728.728v13.135a1.765,1.765,0,0,1-1.765,1.765h-3.2a1.765,1.765,0,0,1-1.765-1.765V118.428a.728.728,0,0,1,.728-.728Z" class="cls-17" data-name="Path 489" transform="translate(-14.085 -19.232)"/><rect id="Rectangle_519" width="7.555" height="4.375" class="cls-16" data-name="Rectangle 519" transform="translate(71.688 101.848)"/><rect id="Rectangle_520" width="1.765" height="1.682" class="cls-8" data-name="Rectangle 520" transform="translate(86.973 94.243)"/><path id="Path_490" d="M104.413,114.33h0a3.648,3.648,0,0,1,3.648,3.648v13.386a1.673,1.673,0,0,1-1.673,1.673h-4.024a1.673,1.673,0,0,1-1.673-1.673V117.977a3.648,3.648,0,0,1,3.723-3.648Z" class="cls-8" data-name="Path 490" transform="translate(-16.453 -18.681)"/><rect id="Rectangle_521" width="2.886" height="1.556" class="cls-14" data-name="Rectangle 521" rx=".4" transform="translate(86.413 93.306)"/><path id="Path_491" d="M101.856,117.7h5.271a.728.728,0,0,1,.728.728v13.135a1.765,1.765,0,0,1-1.765,1.765h-3.2a1.765,1.765,0,0,1-1.765-1.765V118.428a.728.728,0,0,1,.728-.728Z" class="cls-18" data-name="Path 491" transform="translate(-16.523 -19.232)"/><rect id="Rectangle_522" width="7.555" height="4.375" class="cls-14" data-name="Rectangle 522" transform="translate(84.179 101.848)"/><rect id="Rectangle_523" width="1.765" height="1.682" class="cls-8" data-name="Rectangle 523" transform="translate(97.59 94.243)"/><path id="Path_492" d="M117.1,114.33h0a3.648,3.648,0,0,1,3.648,3.648v13.386a1.673,1.673,0,0,1-1.673,1.673h-4.024a1.673,1.673,0,0,1-1.673-1.673V117.978a3.648,3.648,0,0,1,3.648-3.648Z" class="cls-8" data-name="Path 492" transform="translate(-18.526 -18.681)"/><rect id="Rectangle_524" width="2.886" height="1.556" class="cls-19" data-name="Rectangle 524" rx=".4" transform="translate(97.029 93.306)"/><path id="Path_493" d="M114.548,117.7h5.279a.728.728,0,0,1,.728.728v13.135a1.765,1.765,0,0,1-1.765,1.765h-3.2a1.765,1.765,0,0,1-1.765-1.765V118.428a.728.728,0,0,1,.728-.728Z" class="cls-20" data-name="Path 493" transform="translate(-18.598 -19.232)"/><rect id="Rectangle_525" width="7.555" height="4.375" class="cls-19" data-name="Rectangle 525" transform="translate(94.787 101.848)"/><path id="Path_494" d="M43.32,89.99l3.9,5.848h2.936l3.681-5.957-2.351,1.824.059-3.48L50,91.17l-1.23-4.61-1.5,4.133L45.88,88.116l-.209,3.321Z" class="cls-14" data-name="Path 494" transform="translate(-7.078 -14.144)"/><path id="Path_495" d="M983.034,1031.651h2.778a7.529,7.529,0,0,0,3.472-6.818c-.4-5.379-3.2-3.756-3.2-3.756h-2.936s-2.752-2.091-3.346,3.6A7.044,7.044,0,0,0,983.034,1031.651Z" class="cls-10" data-name="Path 495" transform="translate(-943.002 -939.383)"/><path id="Path_496" d="M45.449,97.576l-.209,8.441.544.719.5-9.537Z" class="cls-21" data-name="Path 496" transform="translate(-7.392 -15.882)"/><path id="Path_497" d="M47.959,97.65l-.109,10.575h.837V97.65Z" class="cls-21" data-name="Path 497" transform="translate(-7.819 -15.956)"/><path id="Path_498" d="M50.384,97.65,50.3,108.225h.728V97.65Z" class="cls-21" data-name="Path 498" transform="translate(-8.219 -15.956)"/><path id="Path_499" d="M52.36,97.39l.259,9.78.686-.77-.218-8.927Z" class="cls-21" data-name="Path 499" transform="translate(-8.556 -15.913)"/><path id="Path_500" d="M44.207,100.19l9.044.05.176,1.029-9.387-.142Z" class="cls-21" data-name="Path 500" transform="translate(-7.196 -16.371)"/><path id="Path_501" d="M43.95,104.11h9.42l-.125.778H44.075Z" class="cls-21" data-name="Path 501" transform="translate(-7.181 -17.011)"/><path id="Path_502" d="M44.91,107.175l7.755-.025-.636.912H45.479Z" class="cls-21" data-name="Path 502" transform="translate(-7.338 -17.508)"/><path id="Path_503" d="M944.45,1050.623l1.063,11.026h15.2l1.272-11.369s-2.4,1.74-3.346,1.765c-1.355,0-3.957-1.832-5.262-1.422-.719.226-1.673,2.008-2.284,2.008a20.3,20.3,0,0,1-3.664-.728C946.659,1051.644,944.45,1050.623,944.45,1050.623Z" class="cls-22" data-name="Path 503" transform="translate(-937.239 -944.216)"/><path id="Path_504" d="M9.07,126.365l1.213,2.744h.912l1.138-2.794-.728.853.017-1.631-.485,1.38-.376-2.167-.46,1.941-.435-1.2L9.8,127.042Z" class="cls-14" data-name="Path 504" transform="translate(-1.482 -20.384)"/><path id="Path_505" d="M13.98,128.054l.812,1.807h.619l.77-1.841-.494.569.008-1.079-.318.912L15.118,127l-.318,1.272-.284-.795-.05,1.029Z" class="cls-14" data-name="Path 505" transform="translate(-2.284 -20.752)"/><path id="Path_506" d="M17.75,125.725l1.213,2.744h.9l1.146-2.794-.728.853.017-1.64-.485,1.389-.376-2.167-.468,1.941-.427-1.213-.067,1.564Z" class="cls-14" data-name="Path 506" transform="translate(-2.9 -20.279)"/><path id="Path_507" d="M25.69,126.212l.837,2.25h.636l.786-2.292-.5.7.008-1.347-.335,1.138-.259-1.774-.326,1.59-.293-1-.05,1.288Z" class="cls-14" data-name="Path 507" transform="translate(-4.198 -20.407)"/><path id="Path_508" d="M21.95,127.306l.937,2.025h.7l.878-2.066-.561.636.008-1.213-.368,1.029-.293-1.606-.36,1.439-.326-.9-.05,1.155Z" class="cls-14" data-name="Path 508" transform="translate(-3.587 -20.606)"/><path id="Path_509" d="M10.739,135.5l2.97.36.46-.786-1.815-2.418.368,1.071-1.4-.853L12.27,134l-2.05-.77,1.422,1.389-1.255-.243,1.305.853Z" class="cls-14" data-name="Path 509" transform="translate(-1.67 -21.676)"/><path id="Path_510" d="M25.332,136.63l-2.092,1.121.05.728,2.267.736-.711-.527,1.288-.075-1.121-.3,1.682-.435-1.556-.251.929-.41-1.23.033Z" class="cls-14" data-name="Path 510" transform="translate(-3.797 -22.325)"/><path id="Path_511" d="M18.258,132.75l2.987-.126.326-.853L19.4,129.68l.527,1-1.506-.611,1.1.954-2.142-.435L19,131.73l-1.272-.042,1.422.636Z" class="cls-14" data-name="Path 511" transform="translate(-2.84 -21.19)"/><path id="Path_512" d="M950.193,1059.812a.217.217,0,0,0,.092.318c1,.477,5.078,2.368,5.279,2.033.276-.469-3.648-2.761-4.56-3.28a.218.218,0,0,0-.3.075Z" class="cls-23" data-name="Path 512" transform="translate(-938.171 -945.616)"/><path id="Path_513" d="M957.377,1056.349a.226.226,0,0,0,.151.293c1.071.284,5.43,1.4,5.563,1.029.184-.51-4.091-2.041-5.078-2.393a.234.234,0,0,0-.285.134Z" class="cls-23" data-name="Path 513" transform="translate(-939.349 -945.031)"/><path id="Path_514" d="M958.236,1061.227a.218.218,0,0,0-.251-.218c-1.1.176-5.53.912-5.5,1.305,0,.535,4.56.226,5.605.142a.226.226,0,0,0,.2-.234Z" class="cls-23" data-name="Path 514" transform="translate(-938.551 -945.968)"/><path id="Path_515" d="M962.983,1046.854a1.364,1.364,0,0,0-1.355-1.364H944.294a1.364,1.364,0,0,0-.686,2.51l1.3,13.385h16.1L962.314,1048A1.364,1.364,0,0,0,962.983,1046.854Z" class="cls-24" data-name="Path 515" transform="translate(-936.999 -943.433)"/><path id="Path_516" d="M970.59,1050.623l1.063,11.026h15.176l1.272-11.369s-2.4,1.74-3.346,1.765c-1.364,0-3.965-1.832-5.262-1.422-.728.226-1.673,2.008-2.284,2.008a20.293,20.293,0,0,1-3.664-.728C972.8,1051.644,970.59,1050.623,970.59,1050.623Z" class="cls-25" data-name="Path 516" transform="translate(-941.51 -944.216)"/><ellipse id="Ellipse_139" cx="1.966" cy="1.631" class="cls-26" data-name="Ellipse 139" rx="1.966" ry="1.631" transform="translate(31.941 109.352)"/><ellipse id="Ellipse_140" cx="1.33" cy="1.598" class="cls-26" data-name="Ellipse 140" rx="1.33" ry="1.598" transform="translate(41.449 114.48) rotate(-29.38)"/><ellipse id="Ellipse_141" cx="1.104" cy="1.255" class="cls-26" data-name="Ellipse 141" rx="1.104" ry="1.255" transform="translate(42.189 110.793) rotate(-82.02)"/><ellipse id="Ellipse_142" cx="1.104" cy="1.255" class="cls-26" data-name="Ellipse 142" rx="1.104" ry="1.255" transform="translate(31.388 116.715) rotate(-82.02)"/><path id="Path_517" d="M39.67,130.225l.376.694.385.017.343-.954-.41.469-.059-.761-.226.778Z" class="cls-14" data-name="Path 517" transform="translate(-6.482 -21.191)"/><path id="Path_518" d="M52.36,129.554l.109.77.351.159.653-.77-.535.293.2-.736-.477.653Z" class="cls-14" data-name="Path 518" transform="translate(-8.556 -21.123)"/><path id="Path_519" d="M38.47,136.745l.368.686.385.017.343-.945-.4.468-.067-.761-.226.778Z" class="cls-14" data-name="Path 519" transform="translate(-6.286 -22.257)"/><path id="Path_520" d="M49.78,136.64l.736.268.3-.251-.385-.937.017.619-.561-.519.351.728Z" class="cls-14" data-name="Path 520" transform="translate(-8.134 -22.176)"/><path id="Path_521" d="M989.143,1046.854a1.364,1.364,0,0,0-1.355-1.364H970.454a1.364,1.364,0,0,0-.686,2.51l1.305,13.385h16.1L988.474,1048a1.363,1.363,0,0,0,.669-1.146Z" class="cls-24" data-name="Path 521" transform="translate(-941.273 -943.433)"/><path id="Path_522" d="M8.23,88.664,12.388,94.9h3.129l3.932-6.35L16.939,90.5,17,86.774l-1.648,3.146L14.036,85l-1.59,4.409-1.481-2.744L10.731,90.2Z" class="cls-14" data-name="Path 522" transform="translate(-1.345 -13.889)"/><path id="Path_523" d="M948.193,1031.521h2.962a7.981,7.981,0,0,0,3.7-7.262c-.418-5.739-3.413-4.007-3.413-4.007h-3.154s-2.936-2.234-3.589,3.832a7.53,7.53,0,0,0,3.5,7.438Z" class="cls-10" data-name="Path 523" transform="translate(-937.267 -939.243)"/><path id="Path_524" d="M10.506,96.752l-.226,8.993.577.778.535-10.173Z" class="cls-21" data-name="Path 524" transform="translate(-1.68 -15.743)"/><path id="Path_525" d="M13.177,96.83,13.06,108.1h.9V96.83Z" class="cls-21" data-name="Path 525" transform="translate(-2.134 -15.822)"/><path id="Path_526" d="M15.762,96.83,15.67,108.1h.778V96.83Z" class="cls-21" data-name="Path 526" transform="translate(-2.56 -15.822)"/><path id="Path_527" d="M17.87,96.55l.276,10.432.736-.828-.234-9.512Z" class="cls-21" data-name="Path 527" transform="translate(-2.92 -15.776)"/><path id="Path_528" d="M9.184,99.54l9.638.05.184,1.1L9,100.536Z" class="cls-21" data-name="Path 528" transform="translate(-1.471 -16.265)"/><path id="Path_529" d="M8.9,103.71H18.948l-.134.837H9.042Z" class="cls-21" data-name="Path 529" transform="translate(-1.454 -16.946)"/><path id="Path_530" d="M9.92,106.985l8.274-.025-.678.97H10.531Z" class="cls-21" data-name="Path 530" transform="translate(-1.621 -17.477)"/><path id="Path_531" d="M26.75,89.174l4.15,6.233h3.137l3.924-6.35-2.5,1.949.059-3.723-1.656,3.146L32.556,85.51l-1.6,4.409-1.481-2.744-.226,3.539Z" class="cls-14" data-name="Path 531" transform="translate(-4.371 -13.972)"/><path id="Path_532" d="M966.725,1032.031h3a8,8,0,0,0,3.7-7.262c-.427-5.739-3.413-4.007-3.413-4.007h-3.137s-2.928-2.234-3.581,3.832A7.53,7.53,0,0,0,966.725,1032.031Z" class="cls-10" data-name="Path 532" transform="translate(-940.305 -939.327)"/><path id="Path_533" d="M29.018,97.262l-.218,8.993.569.77.544-10.165Z" class="cls-21" data-name="Path 533" transform="translate(-4.706 -15.827)"/><path id="Path_534" d="M31.689,97.34l-.109,11.269h.887V97.34Z" class="cls-21" data-name="Path 534" transform="translate(-5.16 -15.905)"/><path id="Path_535" d="M34.282,97.34l-.092,11.269h.778V97.34Z" class="cls-21" data-name="Path 535" transform="translate(-5.587 -15.905)"/><path id="Path_536" d="M36.39,97.06l.276,10.432.736-.828-.243-9.521Z" class="cls-21" data-name="Path 536" transform="translate(-5.946 -15.859)"/><path id="Path_537" d="M27.694,100.05l9.646.05.176,1.1-10.006-.151Z" class="cls-21" data-name="Path 537" transform="translate(-4.495 -16.348)"/><path id="Path_538" d="M27.42,104.22H37.468l-.134.828H27.562Z" class="cls-21" data-name="Path 538" transform="translate(-4.48 -17.029)"/><path id="Path_539" d="M28.44,107.5l8.274-.025-.678.97H29.051Z" class="cls-21" data-name="Path 539" transform="translate(-4.647 -17.56)"/><path id="Path_540" d="M952.574,985.144s-1.556,2.895,4.325,4.643c5.078,1.514,9.2-1.673,10.257-2.51a.836.836,0,0,0,.284-.494l.209-1.313a.652.652,0,0,0-.109-.51c-.268-.393-1.021-1.063-3.137-1.481-1.949-.385-2.66-.268-2.92-.117a1.422,1.422,0,0,1-.753.125C958.84,983.346,953.126,983.086,952.574,985.144Z" class="cls-27" data-name="Path 540" transform="translate(-938.535 -933.258)"/><path id="Path_541" d="M952.6,985.144s-.92,2.125,5.2,3.271c5.664,1.054,9.872-2.945,9.872-2.945a.652.652,0,0,0-.109-.51c-.268-.393-1.021-1.063-3.137-1.481-1.949-.385-2.66-.268-2.92-.117a1.422,1.422,0,0,1-.753.125C958.867,983.346,953.153,983.086,952.6,985.144Z" class="cls-28" data-name="Path 541" transform="translate(-938.562 -933.258)"/><path id="Path_542" d="M953.329,986.265a1.832,1.832,0,0,0,.912.937,2.509,2.509,0,0,0,.669.226.527.527,0,0,0,.51-.117.518.518,0,0,0,0-.4.376.376,0,0,1,.05-.226.889.889,0,0,1,.218-.167,2.025,2.025,0,0,0,.7-.427c.184-.276-.1-.636-.519-.552a.694.694,0,0,0-.326.184l-.084.067h-.126a.769.769,0,0,1-.368.042l-.385-.059a2.291,2.291,0,0,0-.954,0c-.284.084-.326.343-.075.485s.661.36,1,.535a.385.385,0,0,0,.5-.159l.05-.1c.075-.134-.067-.293-.234-.326a.377.377,0,0,0-.427.184l-.05.1.51-.159c-.343-.167-.678-.351-1-.535l-.084.485a1.173,1.173,0,0,1,.51,0,6.161,6.161,0,0,0,.686.084,1.732,1.732,0,0,0,.694-.117,1.677,1.677,0,0,0,.293-.159l.1-.084h-.142a.15.15,0,0,1-.134-.192c.017-.084.05-.059,0,0s0,0-.067,0l-.226.117a2.136,2.136,0,0,0-.469.268.9.9,0,0,0-.284.41v.494l.05-.134h0l.2-.125h-.259l-.2-.092s-.092-.05-.059,0l-.075-.059a.723.723,0,0,1-.151-.117.578.578,0,0,1-.117-.126.729.729,0,0,1-.167-.284.368.368,0,0,0-.427-.184.268.268,0,0,0-.243.326Z" class="cls-29" data-name="Path 542" transform="translate(-938.688 -933.635)"/><path id="Path_543" d="M956.985,986.756a.694.694,0,0,0-.519.837c.125.36.552.544.962.678a4.62,4.62,0,0,0,1.556.234l.837-.05h.9c.3,0,.469-.452.092-.527s-.778-.142-1.155-.226a3.254,3.254,0,0,1-.837-.343,5.854,5.854,0,0,0-1.606-.778v.51a1.5,1.5,0,0,1,1.171.159c.167.117.293.259.452.393a2.293,2.293,0,0,0,.276.193.891.891,0,0,1,.2.1l-.05-.134h0l.05-.134h0l.117-.1a.9.9,0,0,1-.368,0,3.44,3.44,0,0,1-.418,0,3.586,3.586,0,0,1-.795-.209c-.109-.05-.2-.126-.318-.167s-.084,0-.042.126h0l.092.05a1.773,1.773,0,0,0,.7.376c.427.075.611-.443.176-.51a.535.535,0,0,1-.268-.151,1.751,1.751,0,0,0-.36-.226.837.837,0,0,0-.887.151c-.418.51.653.837,1.121.987a3.89,3.89,0,0,0,.937.126c.293,0,.753,0,.92-.218s-.142-.443-.393-.577a5.3,5.3,0,0,1-.577-.477,2.292,2.292,0,0,0-1.9-.343c-.31.084-.335.435,0,.51a5.917,5.917,0,0,1,1.539.778,7.458,7.458,0,0,0,2.083.577l.092-.527a10.068,10.068,0,0,0-1.33,0,4,4,0,0,1-1.263-.058,2.622,2.622,0,0,1-.9-.3c-.184-.134-.142-.3.084-.376a.243.243,0,0,0,.126-.368.41.41,0,0,0-.469-.092Z" class="cls-29" data-name="Path 543" transform="translate(-939.199 -933.783)"/><path id="Path_544" d="M954.233,984.825c-.134-.36,2.8-.427,3.146-.418a5.1,5.1,0,0,1,.837.05c.276.05.176,0,.151.167a2.328,2.328,0,0,0-.059.335.686.686,0,0,0,.234.452,1.434,1.434,0,0,0,.544.326l.151-.226h-.226a3.223,3.223,0,0,1-.393-.067,3.007,3.007,0,0,1-.736-.226,11.934,11.934,0,0,0-1.2-.661,1.833,1.833,0,0,0-1.38,0c-.209.1-.318.226-.594.2a1.2,1.2,0,0,0-.184,0h0c-.142-.042-.142,0,0,.251a2.051,2.051,0,0,0,.385-.059c.669-.075,1.339-.109,2.008-.117.452,0,1.313,0,1.255.527l.343-.259a3.1,3.1,0,0,1-1.288-.536,3.539,3.539,0,0,0-1.539-.368,1.816,1.816,0,0,0-1.2.376c-.067.067-.109.159-.176.218s-.167,0-.293,0h-.075v.176a1.62,1.62,0,0,1,.142-.084.969.969,0,0,1,.41-.084c.443,0,.443-.544,0-.536s-1.673.393-1.129.887a1.414,1.414,0,0,0,.837.209.953.953,0,0,0,.46-.134,1.622,1.622,0,0,0,.259-.276c.385-.393,1.263-.2,1.723,0s1.071.753,1.807.686a.308.308,0,0,0,.343-.268c.067-.561-.594-.945-1.255-1.029a12.163,12.163,0,0,0-2.342.05,3.838,3.838,0,0,0-1.088.167c-.268.126-.393.393-.167.586a1.606,1.606,0,0,0,.92.2,1.379,1.379,0,0,0,.427-.092,2.159,2.159,0,0,1,.485-.234c.694-.117,1.28.519,1.815.753a4.188,4.188,0,0,0,.971.276,1.816,1.816,0,0,0,.945,0,.335.335,0,0,0,.1-.586c-.184-.167-.619-.234-.636-.477s.084-.285.075-.435a.543.543,0,0,0-.117-.31c-.226-.268-.7-.259-1.071-.284a13.887,13.887,0,0,0-2.7.092c-.644.084-1.882.243-1.606.979.125.326.786.192.661-.142Z" class="cls-29" data-name="Path 544" transform="translate(-938.673 -933.374)"/><path id="Path_545" d="M966.3,986.8a12.435,12.435,0,0,1-1.18.494,7.044,7.044,0,0,1-1.263.352.954.954,0,0,1-.6-.209l-.552-.31-.6-.326a1.323,1.323,0,0,1-.243-.142c-.059-.075-.05-.059,0-.142a1.264,1.264,0,0,1,.837-.293,2.117,2.117,0,0,1,1.021.343,8.877,8.877,0,0,0,2.435.678V986.8l-1.1.284a4.325,4.325,0,0,1-1.088.226,1.464,1.464,0,0,1-.837-.385l-.837-.594-.075.418a1.763,1.763,0,0,1,.719-.159c.259,0,.351.192.519.326a2.158,2.158,0,0,0,1.288.418c.377,0,.485-.468.092-.527-.569-.075-1.138-.176-1.673-.293l-.092.519a1.029,1.029,0,0,1,.636.268.4.4,0,0,0,.468.092c.151-.059.234-.251.125-.36a1.816,1.816,0,0,0-1.23-.527.268.268,0,1,0-.092.519c.56.117,1.129.218,1.673.293l.092-.519a1.423,1.423,0,0,1-.678-.167c-.226-.134-.343-.335-.586-.452a2.108,2.108,0,0,0-1.606.109.234.234,0,0,0-.067.418l.987.694a2.008,2.008,0,0,0,1.021.427,3.59,3.59,0,0,0,1.263-.184l1.288-.335c.3-.075.343-.452,0-.51a8.1,8.1,0,0,1-2.351-.661,2.913,2.913,0,0,0-1.079-.376,2.51,2.51,0,0,0-1,.142,1.514,1.514,0,0,0-.745.552c-.2.343.067.586.41.778l1.154.644a1.815,1.815,0,0,0,1.2.351,7.263,7.263,0,0,0,1.347-.36,11.8,11.8,0,0,0,1.339-.552c.376-.176,0-.636-.343-.452Z" class="cls-29" data-name="Path 545" transform="translate(-939.962 -933.672)"/><path id="Path_546" d="M958.859,984.57v.117a.134.134,0,0,0,.059.092.234.234,0,0,0,.092.067.242.242,0,0,0,.134,0h.217a.276.276,0,0,0,.125-.092v-.067a.184.184,0,0,0,0-.134l-.042-.125a.142.142,0,0,0-.059-.084.259.259,0,0,0-.092-.075.342.342,0,0,0-.134,0h-.218a.368.368,0,0,0-.125.1v.059a.209.209,0,0,0,0,.142Z" class="cls-29" data-name="Path 546" transform="translate(-939.584 -933.428)"/><path id="Path_547" d="M962.6,986.638v.084a.158.158,0,0,0,0,.1.134.134,0,0,0,.067.084.277.277,0,0,0,.109.059.343.343,0,0,0,.134,0H963a.429.429,0,0,0,.151-.075l.05-.05a.209.209,0,0,0,.05-.134v-.084a.134.134,0,0,0,0-.1.175.175,0,0,0-.067-.092.259.259,0,0,0-.109-.05.379.379,0,0,0-.134,0h-.092a.411.411,0,0,0-.151.067l-.059.059a.251.251,0,0,0,0,.134Z" class="cls-29" data-name="Path 547" transform="translate(-940.203 -933.773)"/><path id="Path_548" d="M961.187,987.978a4.92,4.92,0,0,1-1.355-.728,4.331,4.331,0,0,0-.753-.41,1.339,1.339,0,0,0-1.029-.092c-.376.176,0,.636.351.46h.05l.159.042a2.217,2.217,0,0,1,.351.151,5.507,5.507,0,0,1,.6.368,4.745,4.745,0,0,0,1.439.719.368.368,0,0,0,.427-.184c.05-.142-.067-.276-.243-.326Z" class="cls-29" data-name="Path 548" transform="translate(-939.435 -933.824)"/><path id="Path_549" d="M960.809,984.1a1.8,1.8,0,0,0-.159.577c0,.251.3.343.569.4a4.031,4.031,0,0,0,.711.092h.745a3.94,3.94,0,0,1,.611.092,1.414,1.414,0,0,0,.728-.092,1.748,1.748,0,0,0,.778-.778.535.535,0,0,0,0-.577.836.836,0,0,0-.51-.259,3.5,3.5,0,0,0-1.531,0c-.192.059-.393.126-.594.167a4.045,4.045,0,0,1-.711,0,.736.736,0,0,0-.569.2.368.368,0,0,0,0,.5c.318.36.929.31,1.4.226.276-.05.561-.092.837-.125h.7l-.092-.117c.151-.117.192-.167.117-.151h-1.322c-.393,0-.46.41-.092.519a3.64,3.64,0,0,0,.912.142c.435,0,.435-.51,0-.527a3.5,3.5,0,0,1-.728-.125l-.092.519h1.313a.627.627,0,0,0,.527-.226.318.318,0,0,0-.159-.477,1.231,1.231,0,0,0-.627-.042,4.637,4.637,0,0,0-.686.075l-.661.092a2.653,2.653,0,0,1-.519.067.683.683,0,0,1-.184,0h-.059a.508.508,0,0,1-.059.117,1.821,1.821,0,0,0,.443,0,7.2,7.2,0,0,0,1.263-.259,1.852,1.852,0,0,1,.569,0h.284a2.36,2.36,0,0,0,.259.05l-.059-.059h0v.109a1.426,1.426,0,0,1-.126.184,1.265,1.265,0,0,1-.31.326.569.569,0,0,1-.443.042,4.657,4.657,0,0,0-.686-.075h-.711a.682.682,0,0,1-.368-.05h-.251l.092.117h0v-.134l.075-.243c.1-.335-.56-.477-.661-.142Z" class="cls-29" data-name="Path 549" transform="translate(-939.886 -933.299)"/><path id="Path_550" d="M966.328,984.124a1.564,1.564,0,0,1-.36.761,3.88,3.88,0,0,0-.3.343.351.351,0,0,0,.117.51,2.228,2.228,0,0,0,.527.209l.653.218a5.211,5.211,0,0,0,.611.2.9.9,0,0,0,.678-.151c.167-.1.318-.2.469-.31a2.089,2.089,0,0,0,.46-.376c.243-.326-.092-.644-.343-.887a3.346,3.346,0,0,0-.786-.552,3.638,3.638,0,0,0-.452-.184,1.121,1.121,0,0,0-.661-.109c-.293.075-.335.3-.36.5l-.092.586a.77.77,0,0,0,0,.594.619.619,0,0,0,.636.218c.31-.067.343-.452,0-.51l-.552-.1-.176.519a4.55,4.55,0,0,1,.669.151l.184-.519-.326-.067c-.435-.084-.6.4-.184.51l.535.142a2.272,2.272,0,0,0,.527.109.719.719,0,0,0,.745-.443c.167-.577-.594-.945-1.079-1.255a.418.418,0,0,0-.485,0,.486.486,0,0,0-.125.527,3.434,3.434,0,0,0,.176.569.494.494,0,0,0,.627.276.418.418,0,0,0,.293-.544c0-.142-.259-.218-.427-.184a.268.268,0,0,0-.234.326h0a.726.726,0,0,0,.167-.109h.176c.067.084.084.1.067.05V985.1a.515.515,0,0,1,0-.1,2.159,2.159,0,0,1-.092-.2.717.717,0,0,1-.05-.192s0-.084,0-.05h-.485l.628.418c.125.092.276.209.276.309v.059h-.109c-.268-.059-.535-.134-.795-.209l-.184.51.326.075a.376.376,0,0,0,.427-.192c.05-.142-.067-.268-.243-.326a5.5,5.5,0,0,0-.678-.151.368.368,0,0,0-.418.192.268.268,0,0,0,.243.326l.544.092v-.51h.125a1.035,1.035,0,0,0,0-.167.848.848,0,0,1,.067-.4c.067-.134,0-.234.059-.36v-.05h0l-.209.084a.971.971,0,0,0,.184.05,3.01,3.01,0,0,1,1.138.7l.192.226c0-.042.042-.042,0,0a1.909,1.909,0,0,0-.159.117l-.36.251a1.014,1.014,0,0,1-.318.192h0l-.218-.075-.485-.167-.435-.142-.218-.075h-.067a.084.084,0,0,1,.05.084h0l.05-.05.159-.159a2,2,0,0,0,.226-.318,2.126,2.126,0,0,0,.276-.778c0-.142-.176-.268-.343-.268a.326.326,0,0,0-.343.268Z" class="cls-29" data-name="Path 550" transform="translate(-940.695 -933.351)"/><path id="Path_551" d="M971.211,983.211s-2.2,2.434,3.087,5.555c4.568,2.7,9.345.644,10.558.042a.837.837,0,0,0,.4-.41l.519-1.221a.719.719,0,0,0,0-.527c-.167-.443-.736-1.272-2.685-2.192-1.807-.837-2.51-.9-2.811-.837a1.4,1.4,0,0,1-.761-.059C977.729,982.986,972.249,981.354,971.211,983.211Z" class="cls-27" data-name="Path 551" transform="translate(-941.537 -933.116)"/><path id="Path_552" d="M971.27,983.211s-1.405,1.849,4.267,4.434c5.246,2.393,10.3-.469,10.3-.469a.719.719,0,0,0,0-.527c-.167-.443-.736-1.272-2.685-2.192-1.807-.837-2.51-.9-2.811-.837a1.4,1.4,0,0,1-.761-.059C977.787,982.986,972.307,981.354,971.27,983.211Z" class="cls-28" data-name="Path 552" transform="translate(-941.596 -933.116)"/><path id="Path_553" d="M971.79,984.34a1.84,1.84,0,0,0,.661,1.138,2.656,2.656,0,0,0,.594.377.519.519,0,0,0,.519,0c.125-.092.125-.243.142-.376a.31.31,0,0,1,.1-.209.983.983,0,0,1,.251-.109,1.94,1.94,0,0,0,.778-.251c.259-.218.067-.636-.36-.653a.778.778,0,0,0-.368.1h-.218a.836.836,0,0,1-.368-.059,2,2,0,0,1-.36-.142,2.364,2.364,0,0,0-.929-.226c-.3,0-.4.259-.192.452s.552.519.837.761a.376.376,0,0,0,.527,0l.067-.075c.1-.117,0-.3-.151-.376a.368.368,0,0,0-.452.075l-.075.084h.527c-.293-.251-.569-.5-.837-.761l-.192.452a1.146,1.146,0,0,1,.494.109,6.11,6.11,0,0,0,.652.243,1.808,1.808,0,0,0,.7.059,1.975,1.975,0,0,0,.318-.084l.117-.058h.05l-.176-.042c-.1-.075-.125-.142-.084-.218s.059-.05,0,0h-.084l-.243.05a2.673,2.673,0,0,0-.519.159.744.744,0,0,0-.368.326c-.084.151-.059.326-.125.477l.075-.117h0l.226-.075h.017l-.109-.058-.092-.05H973.1l-.176-.134s-.075-.075-.05-.042l-.067-.075-.117-.151c0-.05,0-.075-.084-.151a.914.914,0,0,1-.092-.318.376.376,0,0,0-.368-.284c-.176,0-.326.117-.31.259Z" class="cls-29" data-name="Path 553" transform="translate(-941.706 -933.374)"/><path id="Path_554" d="M975.2,985.694a.686.686,0,0,0-.7.694c0,.368.4.653.77.878a4.676,4.676,0,0,0,1.456.611l.837.151c.293.067.586.151.837.234s.561-.318.218-.485-.719-.326-1.071-.5a3.128,3.128,0,0,1-.753-.536,5.917,5.917,0,0,0-1.372-1.146l-.125.5a1.447,1.447,0,0,1,1.1.435,4.645,4.645,0,0,1,.343.485,1.616,1.616,0,0,0,.226.251s.159.109.167.151V987.3l.075-.117h0l.142-.067a.971.971,0,0,1-.368-.059,2.426,2.426,0,0,1-.4-.117,2.927,2.927,0,0,1-.711-.393c-.1-.075-.176-.167-.276-.234s-.075-.05-.075.109h0l.084.067c.192.192.293.41.586.535s.7-.276.3-.452a.553.553,0,0,1-.226-.209,1.5,1.5,0,0,0-.3-.31.836.836,0,0,0-.887-.067c-.535.393.418,1,.837,1.23a3.681,3.681,0,0,0,.887.343c.276.075.728.192.937,0s0-.469-.243-.653a5.153,5.153,0,0,1-.443-.611,2.276,2.276,0,0,0-1.757-.786c-.326,0-.435.343-.125.494a6.075,6.075,0,0,1,1.305,1.129,7.839,7.839,0,0,0,1.891,1.063l.209-.485a9.949,9.949,0,0,0-1.288-.31,4.376,4.376,0,0,1-1.221-.36,2.651,2.651,0,0,1-.837-.519c-.151-.167-.059-.326.176-.343a.234.234,0,0,0,.209-.326.418.418,0,0,0-.435-.2Z" class="cls-29" data-name="Path 554" transform="translate(-942.149 -933.632)"/><path id="Path_555" d="M973.006,983.222c-.042-.393,2.828.251,3.154.343s.535.159.795.251.167.084.109.2a2.487,2.487,0,0,0-.134.31.661.661,0,0,0,.125.5c.067.092.293.4.443.443l.2-.184h-.059l-.159-.059-.36-.159a2.9,2.9,0,0,1-.661-.4,12,12,0,0,0-1.012-.937,1.923,1.923,0,0,0-1.338-.343c-.234.05-.36.151-.619.058l-.176-.075h0c-.126-.067-.142,0-.05.251a1.964,1.964,0,0,0,.393,0,17.333,17.333,0,0,1,1.966.377c.443.109,1.272.335,1.1.837l.393-.167c-.494-.084-.778-.552-1.113-.837a3.657,3.657,0,0,0-1.414-.72,1.757,1.757,0,0,0-1.247.075c-.084.042-.142.126-.226.159s-.167,0-.284-.05h-.075v.176a1.477,1.477,0,0,0,.159-.042,1.012,1.012,0,0,1,.418,0c.435.092.56-.418.125-.519s-1.74,0-1.305.586a1.406,1.406,0,0,0,.786.41.92.92,0,0,0,.477,0,1.394,1.394,0,0,0,.318-.209c.468-.284,1.272.117,1.673.41s.837.987,1.59,1.1c.2,0,.343,0,.4-.176.2-.535-.351-1.062-.979-1.3a10.635,10.635,0,0,0-2.284-.519,3.246,3.246,0,0,0-1.088-.1c-.293.05-.477.284-.31.527a1.607,1.607,0,0,0,.837.41,1.088,1.088,0,0,0,.435,0,1.851,1.851,0,0,1,.527-.109c.7.05,1.113.836,1.581,1.171a4.45,4.45,0,0,0,.837.5,1.867,1.867,0,0,0,.912.251.335.335,0,0,0,.243-.552c-.142-.2-.544-.368-.5-.611s.151-.259.176-.4a.585.585,0,0,0,0-.335c-.159-.31-.627-.418-.97-.527a14.322,14.322,0,0,0-2.644-.569c-.644-.075-1.891-.217-1.8.569.05.351.728.368.678,0Z" class="cls-29" data-name="Path 555" transform="translate(-941.751 -933.16)"/><path id="Path_556" d="M984.248,988a12.389,12.389,0,0,1-1.263.193,6.17,6.17,0,0,1-1.305,0c-.251,0-.376-.193-.535-.343l-.469-.435-.5-.46c-.059-.059-.176-.134-.209-.2s0-.067.075-.125a1.339,1.339,0,0,1,.878-.084,2.042,2.042,0,0,1,.9.586,9.108,9.108,0,0,0,2.2,1.238l.125-.494H983a4.965,4.965,0,0,1-1.113,0,1.472,1.472,0,0,1-.736-.586l-.678-.778-.167.393a1.824,1.824,0,0,1,.736,0c.243.084.293.276.418.443a2.141,2.141,0,0,0,1.155.711c.368.092.586-.335.218-.485-.535-.209-1.062-.443-1.581-.694l-.209.485a1.029,1.029,0,0,1,.552.41.426.426,0,0,0,.435.2.225.225,0,0,0,.2-.318,1.866,1.866,0,0,0-1.062-.837.268.268,0,1,0-.209.485c.51.251,1.037.485,1.573.694l.218-.485a1.338,1.338,0,0,1-.619-.326c-.192-.176-.259-.4-.46-.577a2.167,2.167,0,0,0-1.59-.285.234.234,0,0,0-.167.393l.837.912a2.1,2.1,0,0,0,.887.661,3.833,3.833,0,0,0,1.272.125h1.33c.31,0,.443-.351.117-.494a8.089,8.089,0,0,1-2.117-1.2,2.7,2.7,0,0,0-.962-.627,2.258,2.258,0,0,0-1-.1,1.473,1.473,0,0,0-.837.36c-.268.276-.067.577.218.837l.962.9a1.873,1.873,0,0,0,1.088.636,7.681,7.681,0,0,0,1.389,0,11.436,11.436,0,0,0,1.439-.209c.41-.084.184-.611-.226-.527Z" class="cls-29" data-name="Path 556" transform="translate(-942.936 -933.709)"/><path id="Path_557" d="M977.587,983.949v.125a.175.175,0,0,0,0,.1.37.37,0,0,0,.075.092.511.511,0,0,0,.117.059.343.343,0,0,0,.134,0H978a.376.376,0,0,0,.142-.067l.05-.05a.275.275,0,0,0,0-.142v-.117a.234.234,0,0,0,0-.109.2.2,0,0,0-.084-.084.293.293,0,0,0-.109-.067h-.226a.3.3,0,0,0-.142.059l-.05.05a.277.277,0,0,0,0,.142Z" class="cls-29" data-name="Path 557" transform="translate(-942.65 -933.335)"/><path id="Path_558" d="M980.718,986.906v.084a.159.159,0,0,0,0,.109.284.284,0,0,0,.05.1.3.3,0,0,0,.092.083.285.285,0,0,0,.125.05h.092a.344.344,0,0,0,.159,0h.067a.159.159,0,0,0,.075-.117v-.084a.159.159,0,0,0,0-.109.283.283,0,0,0-.05-.1.259.259,0,0,0-.092-.075.345.345,0,0,0-.125-.059h-.092a.487.487,0,0,0-.159,0h-.067a.2.2,0,0,0-.075.117Z" class="cls-29" data-name="Path 558" transform="translate(-943.163 -933.84)"/><path id="Path_559" d="M979.022,987.867a4.852,4.852,0,0,1-1.138-1.046,4.527,4.527,0,0,0-.627-.569,1.331,1.331,0,0,0-.979-.343c-.41.084-.184.611.226.527h.05l.142.075c.109.075.209.159.31.243a5.469,5.469,0,0,1,.494.494,4.812,4.812,0,0,0,1.221,1.054.376.376,0,0,0,.46-.084c.084-.125,0-.284-.159-.368Z" class="cls-29" data-name="Path 559" transform="translate(-942.404 -933.697)"/><path id="Path_560" d="M979.542,984.065a1.675,1.675,0,0,0-.293.519c-.05.251.209.41.46.527a3.6,3.6,0,0,0,.669.268c.234.075.477.109.72.176s.385.159.577.226a1.339,1.339,0,0,0,.719.092,1.673,1.673,0,0,0,.945-.569.527.527,0,0,0,.176-.552.745.745,0,0,0-.435-.368,3.28,3.28,0,0,0-1.481-.36h-.619a2.952,2.952,0,0,1-.694-.151.745.745,0,0,0-.6.059.36.36,0,0,0-.092.494c.218.427.837.519,1.305.56l.837.075.368.05h.326l-.059-.134c.176-.075.226-.117.151-.117h-.059l-.142-.042-.36-.092c-.243-.067-.485-.109-.728-.159-.385-.067-.544.293-.209.485a3.3,3.3,0,0,0,.837.36c.427.125.552-.393.125-.51a3.033,3.033,0,0,1-.669-.3l-.218.485.661.134c.209.05.41.125.619.167a.611.611,0,0,0,.561-.092.318.318,0,0,0,0-.5,1.22,1.22,0,0,0-.594-.192l-.686-.092c-.217,0-.435-.05-.661-.067a2.844,2.844,0,0,1-.519-.067.4.4,0,0,1-.167-.058h-.05l-.092.092a1.624,1.624,0,0,0,.427.125,6.038,6.038,0,0,0,1.288.05,1.868,1.868,0,0,1,.56.117l.259.109.243.117v-.075h0s0,.075-.059.092a.885.885,0,0,1-.167.142,1.191,1.191,0,0,1-.377.251.6.6,0,0,1-.443-.067,4.248,4.248,0,0,0-.644-.243,6.452,6.452,0,0,1-.694-.167,2.418,2.418,0,0,1-.343-.134l-.117-.059-.117-.059h0l.059.134h0l.075-.126.134-.209c.176-.3-.427-.594-.611-.3Z" class="cls-29" data-name="Path 560" transform="translate(-942.924 -933.359)"/><path id="Path_561" d="M984.88,985.4a1.749,1.749,0,0,1-.535.661,2.937,2.937,0,0,0-.377.251.36.36,0,0,0,0,.527,2.51,2.51,0,0,0,.469.335l.577.368a6,6,0,0,0,.544.343.954.954,0,0,0,.694,0c.184-.059.36-.125.527-.192a1.876,1.876,0,0,0,.535-.259c.31-.251.067-.644-.117-.937a3.67,3.67,0,0,0-.636-.728,4.807,4.807,0,0,0-.393-.293,1.147,1.147,0,0,0-.619-.259c-.3,0-.393.218-.469.4l-.226.544c-.075.184-.2.376-.117.586a.619.619,0,0,0,.569.368c.318,0,.435-.36.117-.5l-.51-.226-.3.452a4.739,4.739,0,0,1,.619.31l.3-.452-.3-.142c-.393-.192-.678.243-.3.452l.485.268a2.408,2.408,0,0,0,.494.226.711.711,0,0,0,.837-.251c.293-.519-.36-1.054-.753-1.481a.418.418,0,0,0-.469-.117.493.493,0,0,0-.251.485,3.6,3.6,0,0,0,.042.594.485.485,0,0,0,.535.418.41.41,0,0,0,.41-.452c0-.142-.192-.276-.36-.284a.268.268,0,0,0-.31.259h0l.184-.059.159.075c.05.1.067.125.059.067v-.644c0,.033,0,0-.042,0l-.477-.117.519.552c.092.117.209.268.184.36s0,0,0,.059h0l-.109-.042-.719-.393-.3.452.3.142a.368.368,0,0,0,.46-.075c.084-.134,0-.285-.159-.377a4.762,4.762,0,0,0-.619-.31.368.368,0,0,0-.452.084.259.259,0,0,0,.151.368l.51.226.125-.494h.109s.05-.134.059-.151l.159-.376a.962.962,0,0,1,.142-.335v-.05h-.218s.125.075.159.1a2.687,2.687,0,0,1,.937.954,1.587,1.587,0,0,1,.134.268c0-.05.058,0,0,0l-.176.075-.41.159a1.069,1.069,0,0,1-.36.117h0l-.192-.125-.435-.276-.385-.251-.2-.126h-.058a.092.092,0,0,1,0,.092s-.067.05,0,0h.067l.184-.117a2.235,2.235,0,0,0,.3-.259,2.126,2.126,0,0,0,.452-.686c.059-.134-.1-.3-.268-.343a.309.309,0,0,0-.393.176Z" class="cls-29" data-name="Path 561" transform="translate(-943.677 -933.581)"/><rect id="Rectangle_526" width="47.67" height="5.873" class="cls-11" data-name="Rectangle 526" transform="translate(56.989 74.273)"/><rect id="Rectangle_527" width="47.67" height="11.102" class="cls-11" data-name="Rectangle 527" transform="translate(56.989 105.42)"/></g></g></svg>