<svg xmlns="http://www.w3.org/2000/svg" width="1920.704" height="1080" viewBox="0 0 1920.704 1080">
  <defs>
    <style>
      .cls-1 {
        fill: #f5f5f9;
      }

      .cls-2 {
        fill: #fff;
      }

      .cls-3, .cls-6 {
        fill: #f04770;
        opacity: 0.7;
      }

      .cls-4 {
        fill: #9882e4;
      }

      .cls-4, .cls-5 {
        opacity: 0.5;
      }

      .cls-5 {
        fill: #ffd33f;
      }

      .cls-6 {
        stroke: rgba(0,0,0,0);
        stroke-miterlimit: 10;
      }
    </style>
  </defs>
  <g id="heroBackground" transform="translate(-8518.295 -21241)">
    <rect id="Rectangle_473" data-name="Rectangle 473" class="cls-1" width="1920" height="1080" transform="translate(8518.295 21241)"/>
    <g id="Group_959" data-name="Group 959" transform="translate(0.001 -30)">
      <path id="Path_443" data-name="Path 443" class="cls-2" d="M265.878,310.158c201.874,7.4,487.13-154.735,693.174,73.749,153.12,169.8,46.921,461.049-227.719,491.657C501.976,901.126,441.1,815.48,322.559,818.436c-155.3,3.871-257.9,88.819-328.446,280.505-5.307,14.42,3.714-494.657,0-750.735C-7.663,225.7,189.932,307.373,265.878,310.158Z" transform="translate(8525.9 21195.926)"/>
      <g id="Group_956" data-name="Group 956" transform="translate(8525.9 21213.926)">
        <path id="Path_356" data-name="Path 356" class="cls-3" d="M347.2,241.1c9.38-20.667,27.989-79.4,69.7-89.835,44.531-11.144,58.839,30.762,38.3,56.63S397.667,234.286,359.41,251.6C328.612,265.535,337.569,262.324,347.2,241.1Z"/>
        <path id="Path_357" data-name="Path 357" class="cls-4" d="M537.6,159.865c8.781-6.479,30.354-26.774,50.309-21.383,21.3,5.755,17.493,26.7,2.811,32.748s-30.338-2.4-50.456-4.1C524.075,165.769,528.587,166.519,537.6,159.865Z"/>
        <path id="Path_358" data-name="Path 358" class="cls-5" d="M675.868,139.495c8.52-1.882,30.878-9.7,43.708.718,13.7,11.127,4.109,25.194-8.584,24.843s-21.39-11.609-35.539-19.384C664.062,139.414,667.116,141.428,675.868,139.495Z"/>
      </g>
      <g id="Group_960" data-name="Group 960" transform="translate(0 -36)">
        <path id="Subtraction_1" data-name="Subtraction 1" class="cls-6" d="M34.73,160.618a33.707,33.707,0,0,1-16.821-4.27A33.2,33.2,0,0,1,6.236,145.162,40.753,40.753,0,0,1,.068,125.455,46.439,46.439,0,0,1,4.335,103.5a63.408,63.408,0,0,1,9.147-14.318A85.828,85.828,0,0,1,25.726,77.4c9.041-7.245,19.715-13.514,31.015-20.151C68.61,50.278,80.882,43.07,93.031,33.8V114a99.658,99.658,0,0,1-13.482,22.98,69.429,69.429,0,0,1-9.084,9.39,59.755,59.755,0,0,1-10.9,7.383C50.88,158.308,42.525,160.618,34.73,160.618Z" transform="translate(10345.467 21992)"/>
        <path id="Path_360" data-name="Path 360" class="cls-4" d="M1748.8,971.756c-7.653,9.136-25.329,36.229-47.9,35.642-24.094-.627-25.438-23.839-11.41-34.036s32.819-5.26,54.608-8.636C1761.639,962.009,1756.656,962.373,1748.8,971.756Z" transform="translate(8525.9 21195.926)"/>
        <path id="Path_361" data-name="Path 361" class="cls-5" d="M1607.286,1028.954c-8.56,4.19-30.277,18.245-46.577,10.485-17.4-8.285-10.845-25.683,2.719-28.578s25.69,6.819,42.709,11.43C1619.837,1026,1616.078,1024.65,1607.286,1028.954Z" transform="translate(8525.9 21195.926)"/>
      </g>
    </g>
  </g>
</svg>
