<svg xmlns="http://www.w3.org/2000/svg" width="1920.704" height="1080" viewBox="0 0 1920.704 1080"><defs><style>.cls-1{fill:#f5f5f9}.cls-2,.cls-6{fill:#f04770;opacity:.7}.cls-3,.cls-4{fill:#9882e4;opacity:.5}.cls-4{fill:#ffd33f}.cls-5{fill:#fff}.cls-6{stroke:transparent;stroke-miterlimit:10}</style></defs><g id="heroBackground" transform="translate(-8518.294 -21241)"><rect id="Rectangle_473" width="1920" height="1080" class="cls-1" data-name="Rectangle 473" transform="translate(8518.295 21241)"/><g id="Group_959" data-name="Group 959" transform="translate(0 -32)"><g id="Group_955" data-name="Group 955" transform="translate(8525.9 21195.926)"><path id="Path_352" d="M102.666,887.291c3.765,18.278,8.016,68.755,39.564,84.7,33.684,17.03,52.773-13.975,41.007-38.451s-41.341-31.621-68.874-52.457C92.2,864.315,98.8,868.517,102.666,887.291Z" class="cls-2" data-name="Path 352"/><path id="Path_353" d="M251.457,977.565c7.728,7.7,26.071,30.96,46.6,28.573,21.922-2.548,21.242-23.827,7.613-31.975s-30.36-2.1-50.507-3.394C238.946,969.729,243.52,969.653,251.457,977.565Z" class="cls-3" data-name="Path 353"/><path id="Path_354" d="M367.895,1021.382c8.149,3.118,29.108,14.154,43.336,5.74,15.191-8.984,7.782-24.312-4.825-25.839s-22.868,8.326-38.01,13.928C356.207,1019.72,359.524,1018.178,367.895,1021.382Z" class="cls-4" data-name="Path 354"/></g><path id="Path_443" d="M265.878,310.158c201.874,7.4,487.13-154.735,693.174,73.749,153.12,169.8,46.921,461.049-227.719,491.657C501.976,901.126,441.1,815.48,322.559,818.436c-155.3,3.871-257.9,88.819-328.446,280.505-5.307,14.42,3.714-494.657,0-750.735C-7.663,225.7,189.932,307.373,265.878,310.158Z" class="cls-5" data-name="Path 443" transform="translate(8525.9 21195.926)"/><g id="Group_956" data-name="Group 956" transform="translate(8525.9 21195.926)"><path id="Path_356" d="M347.2,241.1c9.38-20.667,27.989-79.4,69.7-89.835,44.531-11.144,58.839,30.762,38.3,56.63S397.667,234.286,359.41,251.6C328.612,265.535,337.569,262.324,347.2,241.1Z" class="cls-2" data-name="Path 356"/><path id="Path_357" d="M537.6,159.865c8.781-6.479,30.354-26.774,50.309-21.383,21.3,5.755,17.493,26.7,2.811,32.748s-30.338-2.4-50.456-4.1C524.075,165.769,528.587,166.519,537.6,159.865Z" class="cls-3" data-name="Path 357"/><path id="Path_358" d="M675.868,139.495c8.52-1.882,30.878-9.7,43.708.718,13.7,11.127,4.109,25.194-8.584,24.843s-21.39-11.609-35.539-19.384C664.062,139.414,667.116,141.428,675.868,139.495Z" class="cls-4" data-name="Path 358"/></g><path id="Subtraction_1" d="M34.73,160.618a33.707,33.707,0,0,1-16.821-4.27A33.2,33.2,0,0,1,6.236,145.162,40.753,40.753,0,0,1,.068,125.455,46.439,46.439,0,0,1,4.335,103.5a63.408,63.408,0,0,1,9.147-14.318A85.828,85.828,0,0,1,25.726,77.4c9.041-7.245,19.715-13.514,31.015-20.151C68.61,50.278,80.882,43.07,93.031,33.8V114a99.658,99.658,0,0,1-13.482,22.98,69.429,69.429,0,0,1-9.084,9.39,59.755,59.755,0,0,1-10.9,7.383C50.88,158.308,42.525,160.618,34.73,160.618Z" class="cls-6" data-name="Subtraction 1" transform="translate(10345.467 21992)"/><path id="Path_360" d="M1748.8,971.756c-7.653,9.136-25.329,36.229-47.9,35.642-24.094-.627-25.438-23.839-11.41-34.036s32.819-5.26,54.608-8.636C1761.639,962.009,1756.656,962.373,1748.8,971.756Z" class="cls-3" data-name="Path 360" transform="translate(8525.9 21195.926)"/><path id="Path_361" d="M1607.286,1028.954c-8.56,4.19-30.277,18.245-46.577,10.485-17.4-8.285-10.845-25.683,2.719-28.578s25.69,6.819,42.709,11.43C1619.837,1026,1616.078,1024.65,1607.286,1028.954Z" class="cls-4" data-name="Path 361" transform="translate(8525.9 21195.926)"/></g></g></svg>